<svg xmlns="http://www.w3.org/2000/svg" xmlns:xlink="http://www.w3.org/1999/xlink" width="500" zoomAndPan="magnify" viewBox="0 0 375 374.999991" height="500" preserveAspectRatio="xMidYMid meet" version="1.0"><defs><g/></defs><g fill="#ffc901" fill-opacity="1"><g transform="translate(31.70227, 204.564222)"><g><path d="M 50.46875 -38.46875 C 51.28125 -38.46875 51.90625 -38.332031 52.34375 -38.0625 C 52.789062 -37.789062 53.015625 -37.441406 53.015625 -37.015625 C 53.015625 -36.828125 52.957031 -36.578125 52.84375 -36.265625 C 52.726562 -35.992188 52.5625 -35.753906 52.34375 -35.546875 C 52.132812 -35.335938 51.941406 -35.179688 51.765625 -35.078125 C 51.597656 -34.984375 51.472656 -34.898438 51.390625 -34.828125 C 50.773438 -34.472656 50.273438 -34.082031 49.890625 -33.65625 C 49.503906 -33.238281 49.179688 -32.585938 48.921875 -31.703125 L 41.8125 -6.8125 C 41.65625 -6.3125 41.578125 -5.832031 41.578125 -5.375 C 41.578125 -4.90625 41.644531 -4.535156 41.78125 -4.265625 C 41.914062 -4.003906 42.117188 -3.660156 42.390625 -3.234375 C 42.429688 -3.191406 42.535156 -3.046875 42.703125 -2.796875 C 42.878906 -2.546875 42.96875 -2.285156 42.96875 -2.015625 C 42.96875 -1.941406 42.925781 -1.75 42.84375 -1.4375 C 42.65625 -0.90625 42.289062 -0.53125 41.75 -0.3125 C 41.207031 -0.101562 40.398438 0 39.328125 0 L 25.75 0 C 24.945312 0 24.320312 -0.132812 23.875 -0.40625 C 23.4375 -0.675781 23.21875 -1.039062 23.21875 -1.5 C 23.21875 -1.726562 23.273438 -1.976562 23.390625 -2.25 C 23.546875 -2.5625 23.753906 -2.820312 24.015625 -3.03125 C 24.285156 -3.238281 24.554688 -3.421875 24.828125 -3.578125 C 25.441406 -3.921875 25.941406 -4.3125 26.328125 -4.75 C 26.710938 -5.195312 27.039062 -5.882812 27.3125 -6.8125 L 30.09375 -16.453125 L 19.859375 -16.453125 L 17.09375 -6.8125 C 16.9375 -6.3125 16.859375 -5.832031 16.859375 -5.375 C 16.859375 -4.90625 16.925781 -4.535156 17.0625 -4.265625 C 17.195312 -4.003906 17.398438 -3.660156 17.671875 -3.234375 C 17.710938 -3.191406 17.816406 -3.046875 17.984375 -2.796875 C 18.160156 -2.546875 18.25 -2.285156 18.25 -2.015625 C 18.25 -1.941406 18.210938 -1.75 18.140625 -1.4375 C 17.941406 -0.90625 17.570312 -0.53125 17.03125 -0.3125 C 16.5 -0.101562 15.691406 0 14.609375 0 L 1.046875 0 C 0.234375 0 -0.390625 -0.132812 -0.828125 -0.40625 C -1.273438 -0.675781 -1.5 -1.039062 -1.5 -1.5 C -1.5 -1.726562 -1.441406 -1.976562 -1.328125 -2.25 C -1.171875 -2.5625 -0.957031 -2.820312 -0.6875 -3.03125 C -0.414062 -3.238281 -0.148438 -3.421875 0.109375 -3.578125 C 0.734375 -3.921875 1.234375 -4.3125 1.609375 -4.75 C 1.992188 -5.195312 2.320312 -5.882812 2.59375 -6.8125 L 9.703125 -31.703125 C 9.859375 -32.203125 9.9375 -32.6875 9.9375 -33.15625 C 9.9375 -33.570312 9.867188 -33.925781 9.734375 -34.21875 C 9.597656 -34.507812 9.414062 -34.847656 9.1875 -35.234375 C 9.03125 -35.421875 8.894531 -35.617188 8.78125 -35.828125 C 8.664062 -36.046875 8.609375 -36.269531 8.609375 -36.5 C 8.609375 -36.570312 8.644531 -36.765625 8.71875 -37.078125 C 8.875 -37.578125 9.21875 -37.929688 9.75 -38.140625 C 10.289062 -38.359375 11.101562 -38.46875 12.1875 -38.46875 L 25.75 -38.46875 C 26.5625 -38.46875 27.1875 -38.332031 27.625 -38.0625 C 28.070312 -37.789062 28.296875 -37.441406 28.296875 -37.015625 C 28.296875 -36.828125 28.238281 -36.578125 28.125 -36.265625 C 28.007812 -35.992188 27.84375 -35.753906 27.625 -35.546875 C 27.414062 -35.335938 27.222656 -35.179688 27.046875 -35.078125 C 26.878906 -34.984375 26.757812 -34.898438 26.6875 -34.828125 C 26.0625 -34.472656 25.554688 -34.082031 25.171875 -33.65625 C 24.785156 -33.238281 24.460938 -32.585938 24.203125 -31.703125 L 21.484375 -22.234375 L 31.703125 -22.234375 L 34.421875 -31.703125 C 34.578125 -32.203125 34.65625 -32.6875 34.65625 -33.15625 C 34.65625 -33.570312 34.585938 -33.925781 34.453125 -34.21875 C 34.316406 -34.507812 34.132812 -34.847656 33.90625 -35.234375 C 33.75 -35.421875 33.613281 -35.617188 33.5 -35.828125 C 33.382812 -36.046875 33.328125 -36.269531 33.328125 -36.5 C 33.328125 -36.570312 33.363281 -36.765625 33.4375 -37.078125 C 33.59375 -37.578125 33.9375 -37.929688 34.46875 -38.140625 C 35.007812 -38.359375 35.820312 -38.46875 36.90625 -38.46875 Z M 50.46875 -38.46875 "/></g></g></g><g fill="#ffc901" fill-opacity="1"><g transform="translate(79.861161, 204.564222)"><g><path d="M 19.578125 -30.84375 C 24.460938 -30.84375 28.003906 -30.0625 30.203125 -28.5 C 32.398438 -26.9375 33.5 -24.941406 33.5 -22.515625 C 33.5 -21.785156 33.421875 -21.113281 33.265625 -20.5 C 32.679688 -17.957031 31.070312 -16.132812 28.4375 -15.03125 C 25.800781 -13.9375 22.691406 -13.390625 19.109375 -13.390625 C 17.304688 -13.390625 15.613281 -13.507812 14.03125 -13.75 C 13.988281 -11.738281 14.523438 -10.328125 15.640625 -9.515625 C 16.765625 -8.710938 18.328125 -8.3125 20.328125 -8.3125 C 21.253906 -8.3125 22.140625 -8.414062 22.984375 -8.625 C 23.828125 -8.84375 24.90625 -9.164062 26.21875 -9.59375 C 27.289062 -9.96875 28.019531 -10.15625 28.40625 -10.15625 C 28.832031 -10.15625 29.046875 -9.90625 29.046875 -9.40625 C 29.085938 -8.0625 28.585938 -6.644531 27.546875 -5.15625 C 26.503906 -3.675781 24.960938 -2.414062 22.921875 -1.375 C 20.878906 -0.34375 18.414062 0.171875 15.53125 0.171875 C 11.257812 0.171875 7.753906 -0.90625 5.015625 -3.0625 C 2.285156 -5.21875 0.921875 -8.351562 0.921875 -12.46875 C 0.921875 -13.625 1.078125 -14.972656 1.390625 -16.515625 C 2.347656 -21.253906 4.453125 -24.828125 7.703125 -27.234375 C 10.960938 -29.640625 14.921875 -30.84375 19.578125 -30.84375 Z M 14.4375 -17.203125 C 14.59375 -17.171875 14.804688 -17.15625 15.078125 -17.15625 C 16.691406 -17.15625 17.921875 -17.90625 18.765625 -19.40625 C 19.617188 -20.90625 20.023438 -22.578125 19.984375 -24.421875 C 19.941406 -25.503906 19.632812 -26.046875 19.0625 -26.046875 C 18.632812 -26.046875 18.128906 -25.707031 17.546875 -25.03125 C 16.972656 -24.363281 16.40625 -23.351562 15.84375 -22 C 15.289062 -20.65625 14.820312 -19.054688 14.4375 -17.203125 Z M 14.4375 -17.203125 "/></g></g></g><g fill="#ffc901" fill-opacity="1"><g transform="translate(112.198064, 204.564222)"><g><path d="M 18.421875 -42.671875 C 20.648438 -42.671875 22.296875 -42.25 23.359375 -41.40625 C 24.421875 -40.5625 24.953125 -39.40625 24.953125 -37.9375 C 24.953125 -37.09375 24.816406 -36.265625 24.546875 -35.453125 L 15.484375 -6 C 15.359375 -5.539062 15.296875 -5.140625 15.296875 -4.796875 C 15.296875 -4.296875 15.390625 -3.898438 15.578125 -3.609375 C 15.773438 -3.316406 16.050781 -3.035156 16.40625 -2.765625 C 16.675781 -2.503906 16.867188 -2.285156 16.984375 -2.109375 C 17.097656 -1.929688 17.113281 -1.707031 17.03125 -1.4375 C 16.84375 -0.9375 16.457031 -0.570312 15.875 -0.34375 C 15.300781 -0.113281 14.414062 0 13.21875 0 L 0.0625 0 C -0.9375 0 -1.664062 -0.160156 -2.125 -0.484375 C -2.59375 -0.816406 -2.75 -1.253906 -2.59375 -1.796875 C -2.445312 -2.253906 -2.046875 -2.65625 -1.390625 -3 C -0.804688 -3.3125 -0.320312 -3.675781 0.0625 -4.09375 C 0.445312 -4.519531 0.773438 -5.195312 1.046875 -6.125 L 9.8125 -34.9375 C 9.925781 -35.28125 9.984375 -35.570312 9.984375 -35.8125 C 9.984375 -36.226562 9.878906 -36.570312 9.671875 -36.84375 C 9.460938 -37.113281 9.179688 -37.382812 8.828125 -37.65625 C 8.453125 -37.957031 8.175781 -38.222656 8 -38.453125 C 7.820312 -38.691406 7.789062 -39.003906 7.90625 -39.390625 C 8.144531 -40.273438 9.359375 -41.039062 11.546875 -41.6875 C 13.742188 -42.34375 16.035156 -42.671875 18.421875 -42.671875 Z M 18.421875 -42.671875 "/></g></g></g><g fill="#ffc901" fill-opacity="1"><g transform="translate(133.332538, 204.564222)"><g><path d="M 30.203125 -30.78125 C 33.171875 -30.78125 35.5 -29.796875 37.1875 -27.828125 C 38.882812 -25.867188 39.734375 -23.195312 39.734375 -19.8125 C 39.734375 -18 39.484375 -16.09375 38.984375 -14.09375 C 37.828125 -9.320312 35.671875 -5.691406 32.515625 -3.203125 C 29.359375 -0.722656 25.703125 0.515625 21.546875 0.515625 C 18.890625 0.515625 16.578125 -0.0390625 14.609375 -1.15625 L 12.765625 5.03125 C 12.609375 5.445312 12.53125 5.847656 12.53125 6.234375 C 12.53125 6.660156 12.625 7.015625 12.8125 7.296875 C 13.007812 7.585938 13.265625 7.867188 13.578125 8.140625 C 13.878906 8.453125 14.078125 8.703125 14.171875 8.890625 C 14.273438 9.085938 14.285156 9.320312 14.203125 9.59375 C 14.046875 10.09375 13.679688 10.445312 13.109375 10.65625 C 12.535156 10.863281 11.648438 10.96875 10.453125 10.96875 L -2.765625 10.96875 C -3.773438 10.96875 -4.5 10.800781 -4.9375 10.46875 C -5.382812 10.144531 -5.507812 9.734375 -5.3125 9.234375 C -5.238281 8.929688 -5.101562 8.679688 -4.90625 8.484375 C -4.71875 8.296875 -4.445312 8.125 -4.09375 7.96875 C -3.519531 7.582031 -3.054688 7.1875 -2.703125 6.78125 C -2.359375 6.375 -2.054688 5.726562 -1.796875 4.84375 L 6.640625 -22.8125 C 6.753906 -23.15625 6.8125 -23.441406 6.8125 -23.671875 C 6.8125 -24.097656 6.710938 -24.4375 6.515625 -24.6875 C 6.328125 -24.9375 6.039062 -25.195312 5.65625 -25.46875 C 5.269531 -25.78125 5 -26.050781 4.84375 -26.28125 C 4.695312 -26.507812 4.679688 -26.816406 4.796875 -27.203125 C 5.023438 -28.085938 6.234375 -28.863281 8.421875 -29.53125 C 10.617188 -30.207031 12.910156 -30.546875 15.296875 -30.546875 C 16.992188 -30.546875 18.390625 -30.125 19.484375 -29.28125 C 20.585938 -28.4375 21.21875 -27.257812 21.375 -25.75 C 23.988281 -29.101562 26.929688 -30.78125 30.203125 -30.78125 Z M 23.5 -13.625 C 24.425781 -17.050781 24.890625 -19.421875 24.890625 -20.734375 C 24.890625 -21.535156 24.765625 -22.0625 24.515625 -22.3125 C 24.265625 -22.570312 23.910156 -22.703125 23.453125 -22.703125 C 23.097656 -22.703125 22.648438 -22.535156 22.109375 -22.203125 C 21.578125 -21.878906 21.039062 -21.332031 20.5 -20.5625 L 15.9375 -5.421875 C 16.394531 -4.960938 16.953125 -4.734375 17.609375 -4.734375 C 18.648438 -4.734375 19.640625 -5.320312 20.578125 -6.5 C 21.523438 -7.675781 22.5 -10.050781 23.5 -13.625 Z M 23.5 -13.625 "/></g></g></g><g fill="#ffc901" fill-opacity="1"><g transform="translate(173.233968, 204.564222)"><g><path d="M 27.65625 -38.46875 C 33.4375 -38.46875 37.789062 -37.359375 40.71875 -35.140625 C 43.644531 -32.921875 45.109375 -29.675781 45.109375 -25.40625 C 45.109375 -23.289062 44.722656 -20.847656 43.953125 -18.078125 C 42.679688 -13.609375 40.96875 -10.0625 38.8125 -7.4375 C 36.65625 -4.820312 33.8125 -2.914062 30.28125 -1.71875 C 26.757812 -0.53125 22.25 0.0390625 16.75 0 L 1.046875 -0.0625 C 0.234375 -0.0625 -0.390625 -0.191406 -0.828125 -0.453125 C -1.273438 -0.722656 -1.5 -1.09375 -1.5 -1.5625 C -1.5 -1.789062 -1.441406 -2.039062 -1.328125 -2.3125 C -1.210938 -2.65625 -1.046875 -2.90625 -0.828125 -3.0625 C -0.617188 -3.21875 -0.304688 -3.429688 0.109375 -3.703125 C 0.734375 -4.046875 1.226562 -4.425781 1.59375 -4.84375 C 1.957031 -5.269531 2.273438 -5.945312 2.546875 -6.875 L 9.59375 -31.703125 C 9.738281 -32.203125 9.8125 -32.6875 9.8125 -33.15625 C 9.8125 -33.570312 9.742188 -33.925781 9.609375 -34.21875 C 9.472656 -34.507812 9.289062 -34.847656 9.0625 -35.234375 C 8.71875 -35.734375 8.546875 -36.132812 8.546875 -36.4375 C 8.546875 -36.550781 8.582031 -36.765625 8.65625 -37.078125 C 8.8125 -37.578125 9.148438 -37.929688 9.671875 -38.140625 C 10.191406 -38.359375 10.988281 -38.46875 12.0625 -38.46875 Z M 29.15625 -19.34375 C 30.164062 -22.96875 30.671875 -25.816406 30.671875 -27.890625 C 30.671875 -29.929688 30.242188 -31.335938 29.390625 -32.109375 C 28.546875 -32.878906 27.332031 -33.265625 25.75 -33.265625 L 24.484375 -33.265625 L 16.6875 -5.203125 L 18.078125 -5.203125 C 19.847656 -5.203125 21.335938 -5.578125 22.546875 -6.328125 C 23.765625 -7.078125 24.890625 -8.460938 25.921875 -10.484375 C 26.960938 -12.503906 28.039062 -15.457031 29.15625 -19.34375 Z M 29.15625 -19.34375 "/></g></g></g><g fill="#ffc901" fill-opacity="1"><g transform="translate(217.812694, 204.564222)"><g><path d="M 19.578125 -30.84375 C 24.460938 -30.84375 28.003906 -30.0625 30.203125 -28.5 C 32.398438 -26.9375 33.5 -24.941406 33.5 -22.515625 C 33.5 -21.785156 33.421875 -21.113281 33.265625 -20.5 C 32.679688 -17.957031 31.070312 -16.132812 28.4375 -15.03125 C 25.800781 -13.9375 22.691406 -13.390625 19.109375 -13.390625 C 17.304688 -13.390625 15.613281 -13.507812 14.03125 -13.75 C 13.988281 -11.738281 14.523438 -10.328125 15.640625 -9.515625 C 16.765625 -8.710938 18.328125 -8.3125 20.328125 -8.3125 C 21.253906 -8.3125 22.140625 -8.414062 22.984375 -8.625 C 23.828125 -8.84375 24.90625 -9.164062 26.21875 -9.59375 C 27.289062 -9.96875 28.019531 -10.15625 28.40625 -10.15625 C 28.832031 -10.15625 29.046875 -9.90625 29.046875 -9.40625 C 29.085938 -8.0625 28.585938 -6.644531 27.546875 -5.15625 C 26.503906 -3.675781 24.960938 -2.414062 22.921875 -1.375 C 20.878906 -0.34375 18.414062 0.171875 15.53125 0.171875 C 11.257812 0.171875 7.753906 -0.90625 5.015625 -3.0625 C 2.285156 -5.21875 0.921875 -8.351562 0.921875 -12.46875 C 0.921875 -13.625 1.078125 -14.972656 1.390625 -16.515625 C 2.347656 -21.253906 4.453125 -24.828125 7.703125 -27.234375 C 10.960938 -29.640625 14.921875 -30.84375 19.578125 -30.84375 Z M 14.4375 -17.203125 C 14.59375 -17.171875 14.804688 -17.15625 15.078125 -17.15625 C 16.691406 -17.15625 17.921875 -17.90625 18.765625 -19.40625 C 19.617188 -20.90625 20.023438 -22.578125 19.984375 -24.421875 C 19.941406 -25.503906 19.632812 -26.046875 19.0625 -26.046875 C 18.632812 -26.046875 18.128906 -25.707031 17.546875 -25.03125 C 16.972656 -24.363281 16.40625 -23.351562 15.84375 -22 C 15.289062 -20.65625 14.820312 -19.054688 14.4375 -17.203125 Z M 14.4375 -17.203125 "/></g></g></g><g fill="#ffc901" fill-opacity="1"><g transform="translate(250.149592, 204.564222)"><g><path d="M 18.421875 -42.671875 C 20.648438 -42.671875 22.296875 -42.25 23.359375 -41.40625 C 24.421875 -40.5625 24.953125 -39.40625 24.953125 -37.9375 C 24.953125 -37.09375 24.816406 -36.265625 24.546875 -35.453125 L 15.484375 -6 C 15.359375 -5.539062 15.296875 -5.140625 15.296875 -4.796875 C 15.296875 -4.296875 15.390625 -3.898438 15.578125 -3.609375 C 15.773438 -3.316406 16.050781 -3.035156 16.40625 -2.765625 C 16.675781 -2.503906 16.867188 -2.285156 16.984375 -2.109375 C 17.097656 -1.929688 17.113281 -1.707031 17.03125 -1.4375 C 16.84375 -0.9375 16.457031 -0.570312 15.875 -0.34375 C 15.300781 -0.113281 14.414062 0 13.21875 0 L 0.0625 0 C -0.9375 0 -1.664062 -0.160156 -2.125 -0.484375 C -2.59375 -0.816406 -2.75 -1.253906 -2.59375 -1.796875 C -2.445312 -2.253906 -2.046875 -2.65625 -1.390625 -3 C -0.804688 -3.3125 -0.320312 -3.675781 0.0625 -4.09375 C 0.445312 -4.519531 0.773438 -5.195312 1.046875 -6.125 L 9.8125 -34.9375 C 9.925781 -35.28125 9.984375 -35.570312 9.984375 -35.8125 C 9.984375 -36.226562 9.878906 -36.570312 9.671875 -36.84375 C 9.460938 -37.113281 9.179688 -37.382812 8.828125 -37.65625 C 8.453125 -37.957031 8.175781 -38.222656 8 -38.453125 C 7.820312 -38.691406 7.789062 -39.003906 7.90625 -39.390625 C 8.144531 -40.273438 9.359375 -41.039062 11.546875 -41.6875 C 13.742188 -42.34375 16.035156 -42.671875 18.421875 -42.671875 Z M 18.421875 -42.671875 "/></g></g></g><g fill="#ffc901" fill-opacity="1"><g transform="translate(271.284075, 204.564222)"><g><path d="M 20.609375 -30.546875 C 25.046875 -30.546875 28.59375 -29.726562 31.25 -28.09375 C 33.90625 -26.457031 35.234375 -23.960938 35.234375 -20.609375 C 35.234375 -19.347656 35 -17.90625 34.53125 -16.28125 L 32.171875 -8.3125 C 32.128906 -8.15625 32.109375 -7.960938 32.109375 -7.734375 C 32.109375 -7.117188 32.359375 -6.8125 32.859375 -6.8125 C 33.316406 -6.8125 33.707031 -7.015625 34.03125 -7.421875 C 34.363281 -7.828125 34.585938 -8.03125 34.703125 -8.03125 C 34.898438 -8.03125 35.066406 -7.894531 35.203125 -7.625 C 35.335938 -7.351562 35.40625 -7.046875 35.40625 -6.703125 C 35.4375 -5.660156 35.035156 -4.597656 34.203125 -3.515625 C 33.378906 -2.441406 32.273438 -1.554688 30.890625 -0.859375 C 29.503906 -0.171875 27.984375 0.171875 26.328125 0.171875 C 24.328125 0.171875 22.613281 -0.191406 21.1875 -0.921875 C 19.769531 -1.648438 18.789062 -2.726562 18.25 -4.15625 C 17.09375 -2.769531 15.722656 -1.703125 14.140625 -0.953125 C 12.566406 -0.203125 10.875 0.171875 9.0625 0.171875 C 7.019531 0.171875 5.304688 -0.21875 3.921875 -1 C 2.535156 -1.789062 1.503906 -2.8125 0.828125 -4.0625 C 0.160156 -5.320312 -0.171875 -6.644531 -0.171875 -8.03125 C -0.171875 -8.644531 -0.113281 -9.238281 0 -9.8125 C 0.613281 -12.46875 1.953125 -14.46875 4.015625 -15.8125 C 6.078125 -17.164062 8.53125 -17.84375 11.375 -17.84375 C 14.570312 -17.84375 17.710938 -17.34375 20.796875 -16.34375 L 22.234375 -20.15625 C 22.734375 -21.769531 22.984375 -23.019531 22.984375 -23.90625 C 22.941406 -24.832031 22.628906 -25.523438 22.046875 -25.984375 C 21.472656 -26.453125 20.59375 -26.6875 19.40625 -26.6875 C 19.632812 -26.0625 19.75 -25.425781 19.75 -24.78125 C 19.75 -23.351562 19.207031 -22.117188 18.125 -21.078125 C 17.050781 -20.035156 15.515625 -19.515625 13.515625 -19.515625 C 11.628906 -19.515625 10.15625 -19.925781 9.09375 -20.75 C 8.03125 -21.582031 7.5 -22.613281 7.5 -23.84375 C 7.5 -25.769531 8.578125 -27.367188 10.734375 -28.640625 C 12.890625 -29.910156 16.179688 -30.546875 20.609375 -30.546875 Z M 17.375 -13.046875 C 16.300781 -13.046875 15.425781 -12.628906 14.75 -11.796875 C 14.082031 -10.972656 13.75 -10.082031 13.75 -9.125 C 13.75 -8.507812 13.890625 -8.007812 14.171875 -7.625 C 14.460938 -7.238281 14.878906 -7.046875 15.421875 -7.046875 C 15.921875 -7.046875 16.46875 -7.25 17.0625 -7.65625 C 17.65625 -8.0625 18.085938 -8.664062 18.359375 -9.46875 L 19.578125 -12.875 C 18.921875 -12.988281 18.1875 -13.046875 17.375 -13.046875 Z M 17.375 -13.046875 "/></g></g></g><g fill="#ffc901" fill-opacity="1"><g transform="translate(309.04895, 204.564222)"><g><path d="M 19 -31.0625 C 22.195312 -31.0625 24.957031 -30.773438 27.28125 -30.203125 C 29.613281 -29.628906 31.40625 -28.820312 32.65625 -27.78125 C 33.90625 -26.738281 34.53125 -25.5625 34.53125 -24.25 C 34.53125 -22.90625 34 -21.804688 32.9375 -20.953125 C 31.882812 -20.109375 30.414062 -19.6875 28.53125 -19.6875 C 26.601562 -19.6875 24.972656 -20.164062 23.640625 -21.125 C 22.316406 -22.09375 21.65625 -23.3125 21.65625 -24.78125 C 21.65625 -25.28125 21.734375 -25.757812 21.890625 -26.21875 C 21.191406 -26.40625 20.578125 -26.5 20.046875 -26.5 C 19.078125 -26.5 18.273438 -26.269531 17.640625 -25.8125 C 17.003906 -25.351562 16.707031 -24.695312 16.75 -23.84375 C 16.75 -22.84375 17.25 -21.992188 18.25 -21.296875 C 19.25 -20.609375 20.863281 -19.75 23.09375 -18.71875 C 25.019531 -17.863281 26.609375 -17.078125 27.859375 -16.359375 C 29.109375 -15.648438 30.164062 -14.753906 31.03125 -13.671875 C 31.90625 -12.597656 32.34375 -11.332031 32.34375 -9.875 C 32.34375 -9.5625 32.265625 -8.984375 32.109375 -8.140625 C 31.492188 -5.566406 29.78125 -3.523438 26.96875 -2.015625 C 24.15625 -0.515625 20.457031 0.234375 15.875 0.234375 C 10.71875 0.234375 6.628906 -0.457031 3.609375 -1.84375 C 0.585938 -3.226562 -0.921875 -5.132812 -0.921875 -7.5625 C -0.921875 -9.21875 -0.421875 -10.46875 0.578125 -11.3125 C 1.578125 -12.164062 2.90625 -12.59375 4.5625 -12.59375 C 6.488281 -12.59375 8.132812 -11.992188 9.5 -10.796875 C 10.863281 -9.609375 11.546875 -8.085938 11.546875 -6.234375 C 11.546875 -5.734375 11.488281 -5.210938 11.375 -4.671875 C 12.300781 -4.441406 13.1875 -4.328125 14.03125 -4.328125 C 15.03125 -4.328125 15.859375 -4.597656 16.515625 -5.140625 C 17.171875 -5.679688 17.5 -6.429688 17.5 -7.390625 C 17.457031 -8.273438 17.015625 -9.035156 16.171875 -9.671875 C 15.328125 -10.304688 13.976562 -11.066406 12.125 -11.953125 C 10.394531 -12.765625 8.96875 -13.523438 7.84375 -14.234375 C 6.726562 -14.941406 5.773438 -15.832031 4.984375 -16.90625 C 4.203125 -17.988281 3.8125 -19.265625 3.8125 -20.734375 C 3.8125 -23.890625 5.128906 -26.398438 7.765625 -28.265625 C 10.398438 -30.128906 14.144531 -31.0625 19 -31.0625 Z M 19 -31.0625 "/></g></g></g></svg>