<svg xmlns="http://www.w3.org/2000/svg" xmlns:xlink="http://www.w3.org/1999/xlink" width="500" zoomAndPan="magnify" viewBox="0 0 375 374.999991" height="500" preserveAspectRatio="xMidYMid meet" version="1.0"><defs><g/></defs><g fill="#ffc901" fill-opacity="1"><g transform="translate(54.595175, 201.303211)"><g><path d="M 43.0625 -32.8125 C 43.75 -32.8125 44.28125 -32.695312 44.65625 -32.46875 C 45.03125 -32.238281 45.21875 -31.941406 45.21875 -31.578125 C 45.21875 -31.410156 45.171875 -31.195312 45.078125 -30.9375 C 44.984375 -30.707031 44.84375 -30.5 44.65625 -30.3125 C 44.476562 -30.132812 44.3125 -30.003906 44.15625 -29.921875 C 44.007812 -29.847656 43.90625 -29.773438 43.84375 -29.703125 C 43.320312 -29.410156 42.894531 -29.082031 42.5625 -28.71875 C 42.238281 -28.363281 41.960938 -27.804688 41.734375 -27.046875 L 35.671875 -5.8125 C 35.535156 -5.382812 35.46875 -4.972656 35.46875 -4.578125 C 35.46875 -4.179688 35.523438 -3.867188 35.640625 -3.640625 C 35.753906 -3.410156 35.925781 -3.117188 36.15625 -2.765625 C 36.1875 -2.722656 36.273438 -2.59375 36.421875 -2.375 C 36.578125 -2.164062 36.65625 -1.945312 36.65625 -1.71875 C 36.65625 -1.65625 36.625 -1.492188 36.5625 -1.234375 C 36.394531 -0.773438 36.078125 -0.453125 35.609375 -0.265625 C 35.148438 -0.0859375 34.460938 0 33.546875 0 L 21.96875 0 C 21.28125 0 20.75 -0.113281 20.375 -0.34375 C 20 -0.570312 19.8125 -0.882812 19.8125 -1.28125 C 19.8125 -1.476562 19.859375 -1.691406 19.953125 -1.921875 C 20.085938 -2.179688 20.269531 -2.398438 20.5 -2.578125 C 20.726562 -2.765625 20.957031 -2.921875 21.1875 -3.046875 C 21.707031 -3.347656 22.128906 -3.6875 22.453125 -4.0625 C 22.785156 -4.4375 23.066406 -5.019531 23.296875 -5.8125 L 25.671875 -14.046875 L 16.953125 -14.046875 L 14.578125 -5.8125 C 14.453125 -5.382812 14.390625 -4.972656 14.390625 -4.578125 C 14.390625 -4.179688 14.445312 -3.867188 14.5625 -3.640625 C 14.675781 -3.410156 14.847656 -3.117188 15.078125 -2.765625 C 15.109375 -2.722656 15.195312 -2.59375 15.34375 -2.375 C 15.488281 -2.164062 15.5625 -1.945312 15.5625 -1.71875 C 15.5625 -1.65625 15.53125 -1.492188 15.46875 -1.234375 C 15.300781 -0.773438 14.988281 -0.453125 14.53125 -0.265625 C 14.070312 -0.0859375 13.382812 0 12.46875 0 L 0.890625 0 C 0.203125 0 -0.328125 -0.113281 -0.703125 -0.34375 C -1.085938 -0.570312 -1.28125 -0.882812 -1.28125 -1.28125 C -1.28125 -1.476562 -1.234375 -1.691406 -1.140625 -1.921875 C -1.003906 -2.179688 -0.820312 -2.398438 -0.59375 -2.578125 C -0.363281 -2.765625 -0.132812 -2.921875 0.09375 -3.046875 C 0.625 -3.347656 1.050781 -3.6875 1.375 -4.0625 C 1.707031 -4.4375 1.988281 -5.019531 2.21875 -5.8125 L 8.28125 -27.046875 C 8.40625 -27.472656 8.46875 -27.882812 8.46875 -28.28125 C 8.46875 -28.644531 8.410156 -28.945312 8.296875 -29.1875 C 8.179688 -29.4375 8.023438 -29.722656 7.828125 -30.046875 C 7.703125 -30.210938 7.585938 -30.382812 7.484375 -30.5625 C 7.390625 -30.75 7.34375 -30.941406 7.34375 -31.140625 C 7.34375 -31.203125 7.375 -31.363281 7.4375 -31.625 C 7.570312 -32.050781 7.867188 -32.351562 8.328125 -32.53125 C 8.785156 -32.71875 9.472656 -32.8125 10.390625 -32.8125 L 21.96875 -32.8125 C 22.65625 -32.8125 23.1875 -32.695312 23.5625 -32.46875 C 23.945312 -32.238281 24.140625 -31.941406 24.140625 -31.578125 C 24.140625 -31.410156 24.09375 -31.195312 24 -30.9375 C 23.894531 -30.707031 23.75 -30.5 23.5625 -30.3125 C 23.382812 -30.132812 23.222656 -30.003906 23.078125 -29.921875 C 22.929688 -29.847656 22.828125 -29.773438 22.765625 -29.703125 C 22.234375 -29.410156 21.800781 -29.082031 21.46875 -28.71875 C 21.144531 -28.363281 20.867188 -27.804688 20.640625 -27.046875 L 18.328125 -18.96875 L 27.046875 -18.96875 L 29.359375 -27.046875 C 29.492188 -27.472656 29.5625 -27.882812 29.5625 -28.28125 C 29.5625 -28.644531 29.503906 -28.945312 29.390625 -29.1875 C 29.273438 -29.4375 29.117188 -29.722656 28.921875 -30.046875 C 28.785156 -30.210938 28.664062 -30.382812 28.5625 -30.5625 C 28.46875 -30.75 28.421875 -30.941406 28.421875 -31.140625 C 28.421875 -31.203125 28.457031 -31.363281 28.53125 -31.625 C 28.65625 -32.050781 28.945312 -32.351562 29.40625 -32.53125 C 29.863281 -32.71875 30.554688 -32.8125 31.484375 -32.8125 Z M 43.0625 -32.8125 "/></g></g></g><g fill="#ffc901" fill-opacity="1"><g transform="translate(95.677801, 201.303211)"><g><path d="M 16.703125 -26.3125 C 20.867188 -26.3125 23.890625 -25.644531 25.765625 -24.3125 C 27.640625 -22.976562 28.578125 -21.28125 28.578125 -19.21875 C 28.578125 -18.59375 28.507812 -18.015625 28.375 -17.484375 C 27.882812 -15.316406 26.515625 -13.765625 24.265625 -12.828125 C 22.015625 -11.890625 19.363281 -11.421875 16.3125 -11.421875 C 14.757812 -11.421875 13.3125 -11.519531 11.96875 -11.71875 C 11.9375 -10.007812 12.394531 -8.8125 13.34375 -8.125 C 14.300781 -7.4375 15.632812 -7.09375 17.34375 -7.09375 C 18.132812 -7.09375 18.890625 -7.179688 19.609375 -7.359375 C 20.328125 -7.546875 21.242188 -7.816406 22.359375 -8.171875 C 23.285156 -8.503906 23.910156 -8.671875 24.234375 -8.671875 C 24.597656 -8.671875 24.78125 -8.457031 24.78125 -8.03125 C 24.8125 -6.882812 24.382812 -5.675781 23.5 -4.40625 C 22.613281 -3.144531 21.300781 -2.070312 19.5625 -1.1875 C 17.820312 -0.300781 15.71875 0.140625 13.25 0.140625 C 9.601562 0.140625 6.613281 -0.773438 4.28125 -2.609375 C 1.945312 -4.453125 0.78125 -7.128906 0.78125 -10.640625 C 0.78125 -11.628906 0.914062 -12.78125 1.1875 -14.09375 C 2 -18.132812 3.789062 -21.179688 6.5625 -23.234375 C 9.34375 -25.285156 12.722656 -26.3125 16.703125 -26.3125 Z M 12.3125 -14.6875 C 12.445312 -14.644531 12.628906 -14.625 12.859375 -14.625 C 14.234375 -14.625 15.28125 -15.265625 16 -16.546875 C 16.726562 -17.828125 17.078125 -19.257812 17.046875 -20.84375 C 17.015625 -21.757812 16.75 -22.21875 16.25 -22.21875 C 15.894531 -22.21875 15.46875 -21.929688 14.96875 -21.359375 C 14.476562 -20.785156 13.992188 -19.921875 13.515625 -18.765625 C 13.046875 -17.617188 12.644531 -16.257812 12.3125 -14.6875 Z M 12.3125 -14.6875 "/></g></g></g><g fill="#ffc901" fill-opacity="1"><g transform="translate(123.263263, 201.303211)"><g><path d="M 15.71875 -36.40625 C 17.625 -36.40625 19.023438 -36.039062 19.921875 -35.3125 C 20.828125 -34.59375 21.28125 -33.613281 21.28125 -32.375 C 21.28125 -31.644531 21.164062 -30.9375 20.9375 -30.25 L 13.203125 -5.125 C 13.109375 -4.726562 13.0625 -4.382812 13.0625 -4.09375 C 13.0625 -3.664062 13.140625 -3.328125 13.296875 -3.078125 C 13.460938 -2.828125 13.691406 -2.585938 13.984375 -2.359375 C 14.222656 -2.128906 14.390625 -1.941406 14.484375 -1.796875 C 14.578125 -1.648438 14.59375 -1.460938 14.53125 -1.234375 C 14.363281 -0.804688 14.035156 -0.492188 13.546875 -0.296875 C 13.054688 -0.0976562 12.300781 0 11.28125 0 L 0.046875 0 C -0.804688 0 -1.425781 -0.140625 -1.8125 -0.421875 C -2.207031 -0.703125 -2.34375 -1.070312 -2.21875 -1.53125 C -2.082031 -1.925781 -1.738281 -2.269531 -1.1875 -2.5625 C -0.6875 -2.820312 -0.273438 -3.132812 0.046875 -3.5 C 0.378906 -3.863281 0.660156 -4.4375 0.890625 -5.21875 L 8.375 -29.8125 C 8.46875 -30.101562 8.515625 -30.347656 8.515625 -30.546875 C 8.515625 -30.910156 8.425781 -31.207031 8.25 -31.4375 C 8.070312 -31.664062 7.832031 -31.894531 7.53125 -32.125 C 7.207031 -32.382812 6.972656 -32.613281 6.828125 -32.8125 C 6.679688 -33.007812 6.65625 -33.269531 6.75 -33.59375 C 6.945312 -34.351562 7.976562 -35.007812 9.84375 -35.5625 C 11.71875 -36.125 13.675781 -36.40625 15.71875 -36.40625 Z M 15.71875 -36.40625 "/></g></g></g><g fill="#ffc901" fill-opacity="1"><g transform="translate(141.292332, 201.303211)"><g><path d="M 25.765625 -26.265625 C 28.296875 -26.265625 30.28125 -25.425781 31.71875 -23.75 C 33.164062 -22.070312 33.890625 -19.785156 33.890625 -16.890625 C 33.890625 -15.347656 33.675781 -13.722656 33.25 -12.015625 C 32.269531 -7.941406 30.429688 -4.847656 27.734375 -2.734375 C 25.046875 -0.617188 21.925781 0.4375 18.375 0.4375 C 16.113281 0.4375 14.144531 -0.0351562 12.46875 -0.984375 L 10.890625 4.28125 C 10.753906 4.644531 10.6875 4.992188 10.6875 5.328125 C 10.6875 5.679688 10.769531 5.984375 10.9375 6.234375 C 11.101562 6.484375 11.316406 6.722656 11.578125 6.953125 C 11.835938 7.210938 12.007812 7.421875 12.09375 7.578125 C 12.175781 7.742188 12.1875 7.941406 12.125 8.171875 C 11.988281 8.597656 11.671875 8.898438 11.171875 9.078125 C 10.679688 9.265625 9.929688 9.359375 8.921875 9.359375 L -2.359375 9.359375 C -3.210938 9.359375 -3.828125 9.21875 -4.203125 8.9375 C -4.585938 8.65625 -4.695312 8.300781 -4.53125 7.875 C -4.46875 7.613281 -4.351562 7.398438 -4.1875 7.234375 C -4.019531 7.078125 -3.789062 6.929688 -3.5 6.796875 C -3.007812 6.472656 -2.613281 6.132812 -2.3125 5.78125 C -2.019531 5.4375 -1.757812 4.890625 -1.53125 4.140625 L 5.671875 -19.453125 C 5.765625 -19.753906 5.8125 -20.003906 5.8125 -20.203125 C 5.8125 -20.554688 5.726562 -20.835938 5.5625 -21.046875 C 5.40625 -21.265625 5.160156 -21.488281 4.828125 -21.71875 C 4.492188 -21.988281 4.257812 -22.222656 4.125 -22.421875 C 4 -22.617188 3.988281 -22.878906 4.09375 -23.203125 C 4.289062 -23.960938 5.320312 -24.628906 7.1875 -25.203125 C 9.0625 -25.773438 11.019531 -26.0625 13.0625 -26.0625 C 14.5 -26.0625 15.6875 -25.695312 16.625 -24.96875 C 17.5625 -24.25 18.097656 -23.25 18.234375 -21.96875 C 20.460938 -24.832031 22.972656 -26.265625 25.765625 -26.265625 Z M 20.046875 -11.625 C 20.835938 -14.550781 21.234375 -16.570312 21.234375 -17.6875 C 21.234375 -18.375 21.125 -18.820312 20.90625 -19.03125 C 20.695312 -19.25 20.394531 -19.359375 20 -19.359375 C 19.707031 -19.359375 19.328125 -19.21875 18.859375 -18.9375 C 18.398438 -18.664062 17.941406 -18.195312 17.484375 -17.53125 L 13.59375 -4.625 C 13.988281 -4.238281 14.46875 -4.046875 15.03125 -4.046875 C 15.914062 -4.046875 16.757812 -4.546875 17.5625 -5.546875 C 18.363281 -6.546875 19.191406 -8.570312 20.046875 -11.625 Z M 20.046875 -11.625 "/></g></g></g><g fill="#ffc901" fill-opacity="1"><g transform="translate(175.330809, 201.303211)"><g><path d="M 23.59375 -32.8125 C 28.519531 -32.8125 32.226562 -31.863281 34.71875 -29.96875 C 37.21875 -28.082031 38.46875 -25.316406 38.46875 -21.671875 C 38.46875 -19.867188 38.140625 -17.785156 37.484375 -15.421875 C 36.398438 -11.609375 34.9375 -8.582031 33.09375 -6.34375 C 31.257812 -4.113281 28.835938 -2.488281 25.828125 -1.46875 C 22.828125 -0.457031 18.976562 0.03125 14.28125 0 L 0.890625 -0.046875 C 0.203125 -0.046875 -0.328125 -0.160156 -0.703125 -0.390625 C -1.085938 -0.617188 -1.28125 -0.929688 -1.28125 -1.328125 C -1.28125 -1.523438 -1.234375 -1.738281 -1.140625 -1.96875 C -1.035156 -2.257812 -0.890625 -2.472656 -0.703125 -2.609375 C -0.523438 -2.742188 -0.257812 -2.925781 0.09375 -3.15625 C 0.625 -3.445312 1.046875 -3.773438 1.359375 -4.140625 C 1.671875 -4.503906 1.941406 -5.078125 2.171875 -5.859375 L 8.171875 -27.046875 C 8.304688 -27.472656 8.375 -27.882812 8.375 -28.28125 C 8.375 -28.644531 8.316406 -28.945312 8.203125 -29.1875 C 8.085938 -29.4375 7.929688 -29.722656 7.734375 -30.046875 C 7.441406 -30.472656 7.296875 -30.820312 7.296875 -31.09375 C 7.296875 -31.1875 7.328125 -31.363281 7.390625 -31.625 C 7.523438 -32.050781 7.8125 -32.351562 8.25 -32.53125 C 8.695312 -32.71875 9.378906 -32.8125 10.296875 -32.8125 Z M 24.875 -16.5 C 25.726562 -19.59375 26.15625 -22.023438 26.15625 -23.796875 C 26.15625 -25.535156 25.796875 -26.734375 25.078125 -27.390625 C 24.359375 -28.046875 23.320312 -28.375 21.96875 -28.375 L 20.890625 -28.375 L 14.234375 -4.4375 L 15.421875 -4.4375 C 16.929688 -4.4375 18.203125 -4.753906 19.234375 -5.390625 C 20.273438 -6.035156 21.238281 -7.21875 22.125 -8.9375 C 23.007812 -10.664062 23.925781 -13.1875 24.875 -16.5 Z M 24.875 -16.5 "/></g></g></g><g fill="#ffc901" fill-opacity="1"><g transform="translate(213.359334, 201.303211)"><g><path d="M 16.703125 -26.3125 C 20.867188 -26.3125 23.890625 -25.644531 25.765625 -24.3125 C 27.640625 -22.976562 28.578125 -21.28125 28.578125 -19.21875 C 28.578125 -18.59375 28.507812 -18.015625 28.375 -17.484375 C 27.882812 -15.316406 26.515625 -13.765625 24.265625 -12.828125 C 22.015625 -11.890625 19.363281 -11.421875 16.3125 -11.421875 C 14.757812 -11.421875 13.3125 -11.519531 11.96875 -11.71875 C 11.9375 -10.007812 12.394531 -8.8125 13.34375 -8.125 C 14.300781 -7.4375 15.632812 -7.09375 17.34375 -7.09375 C 18.132812 -7.09375 18.890625 -7.179688 19.609375 -7.359375 C 20.328125 -7.546875 21.242188 -7.816406 22.359375 -8.171875 C 23.285156 -8.503906 23.910156 -8.671875 24.234375 -8.671875 C 24.597656 -8.671875 24.78125 -8.457031 24.78125 -8.03125 C 24.8125 -6.882812 24.382812 -5.675781 23.5 -4.40625 C 22.613281 -3.144531 21.300781 -2.070312 19.5625 -1.1875 C 17.820312 -0.300781 15.71875 0.140625 13.25 0.140625 C 9.601562 0.140625 6.613281 -0.773438 4.28125 -2.609375 C 1.945312 -4.453125 0.78125 -7.128906 0.78125 -10.640625 C 0.78125 -11.628906 0.914062 -12.78125 1.1875 -14.09375 C 2 -18.132812 3.789062 -21.179688 6.5625 -23.234375 C 9.34375 -25.285156 12.722656 -26.3125 16.703125 -26.3125 Z M 12.3125 -14.6875 C 12.445312 -14.644531 12.628906 -14.625 12.859375 -14.625 C 14.234375 -14.625 15.28125 -15.265625 16 -16.546875 C 16.726562 -17.828125 17.078125 -19.257812 17.046875 -20.84375 C 17.015625 -21.757812 16.75 -22.21875 16.25 -22.21875 C 15.894531 -22.21875 15.46875 -21.929688 14.96875 -21.359375 C 14.476562 -20.785156 13.992188 -19.921875 13.515625 -18.765625 C 13.046875 -17.617188 12.644531 -16.257812 12.3125 -14.6875 Z M 12.3125 -14.6875 "/></g></g></g><g fill="#ffc901" fill-opacity="1"><g transform="translate(240.944796, 201.303211)"><g><path d="M 15.71875 -36.40625 C 17.625 -36.40625 19.023438 -36.039062 19.921875 -35.3125 C 20.828125 -34.59375 21.28125 -33.613281 21.28125 -32.375 C 21.28125 -31.644531 21.164062 -30.9375 20.9375 -30.25 L 13.203125 -5.125 C 13.109375 -4.726562 13.0625 -4.382812 13.0625 -4.09375 C 13.0625 -3.664062 13.140625 -3.328125 13.296875 -3.078125 C 13.460938 -2.828125 13.691406 -2.585938 13.984375 -2.359375 C 14.222656 -2.128906 14.390625 -1.941406 14.484375 -1.796875 C 14.578125 -1.648438 14.59375 -1.460938 14.53125 -1.234375 C 14.363281 -0.804688 14.035156 -0.492188 13.546875 -0.296875 C 13.054688 -0.0976562 12.300781 0 11.28125 0 L 0.046875 0 C -0.804688 0 -1.425781 -0.140625 -1.8125 -0.421875 C -2.207031 -0.703125 -2.34375 -1.070312 -2.21875 -1.53125 C -2.082031 -1.925781 -1.738281 -2.269531 -1.1875 -2.5625 C -0.6875 -2.820312 -0.273438 -3.132812 0.046875 -3.5 C 0.378906 -3.863281 0.660156 -4.4375 0.890625 -5.21875 L 8.375 -29.8125 C 8.46875 -30.101562 8.515625 -30.347656 8.515625 -30.546875 C 8.515625 -30.910156 8.425781 -31.207031 8.25 -31.4375 C 8.070312 -31.664062 7.832031 -31.894531 7.53125 -32.125 C 7.207031 -32.382812 6.972656 -32.613281 6.828125 -32.8125 C 6.679688 -33.007812 6.65625 -33.269531 6.75 -33.59375 C 6.945312 -34.351562 7.976562 -35.007812 9.84375 -35.5625 C 11.71875 -36.125 13.675781 -36.40625 15.71875 -36.40625 Z M 15.71875 -36.40625 "/></g></g></g><g fill="#ffc901" fill-opacity="1"><g transform="translate(258.973865, 201.303211)"><g><path d="M 17.59375 -26.0625 C 21.363281 -26.0625 24.378906 -25.363281 26.640625 -23.96875 C 28.910156 -22.570312 30.046875 -20.445312 30.046875 -17.59375 C 30.046875 -16.507812 29.847656 -15.273438 29.453125 -13.890625 L 27.4375 -7.09375 C 27.40625 -6.957031 27.390625 -6.796875 27.390625 -6.609375 C 27.390625 -6.078125 27.601562 -5.8125 28.03125 -5.8125 C 28.425781 -5.8125 28.757812 -5.984375 29.03125 -6.328125 C 29.3125 -6.671875 29.503906 -6.84375 29.609375 -6.84375 C 29.773438 -6.84375 29.914062 -6.726562 30.03125 -6.5 C 30.144531 -6.269531 30.203125 -6.007812 30.203125 -5.71875 C 30.234375 -4.832031 29.894531 -3.925781 29.1875 -3 C 28.476562 -2.082031 27.53125 -1.328125 26.34375 -0.734375 C 25.164062 -0.148438 23.875 0.140625 22.46875 0.140625 C 20.757812 0.140625 19.296875 -0.164062 18.078125 -0.78125 C 16.859375 -1.40625 16.019531 -2.328125 15.5625 -3.546875 C 14.582031 -2.367188 13.414062 -1.457031 12.0625 -0.8125 C 10.71875 -0.175781 9.273438 0.140625 7.734375 0.140625 C 5.992188 0.140625 4.53125 -0.191406 3.34375 -0.859375 C 2.164062 -1.535156 1.289062 -2.40625 0.71875 -3.46875 C 0.144531 -4.539062 -0.140625 -5.664062 -0.140625 -6.84375 C -0.140625 -7.375 -0.09375 -7.882812 0 -8.375 C 0.519531 -10.644531 1.660156 -12.351562 3.421875 -13.5 C 5.179688 -14.644531 7.273438 -15.21875 9.703125 -15.21875 C 12.429688 -15.21875 15.109375 -14.789062 17.734375 -13.9375 L 18.96875 -17.1875 C 19.394531 -18.570312 19.609375 -19.640625 19.609375 -20.390625 C 19.578125 -21.179688 19.3125 -21.773438 18.8125 -22.171875 C 18.320312 -22.566406 17.566406 -22.765625 16.546875 -22.765625 C 16.742188 -22.234375 16.84375 -21.691406 16.84375 -21.140625 C 16.84375 -19.921875 16.382812 -18.867188 15.46875 -17.984375 C 14.550781 -17.097656 13.238281 -16.65625 11.53125 -16.65625 C 9.914062 -16.65625 8.65625 -17.003906 7.75 -17.703125 C 6.851562 -18.410156 6.40625 -19.289062 6.40625 -20.34375 C 6.40625 -21.988281 7.320312 -23.351562 9.15625 -24.4375 C 11 -25.519531 13.8125 -26.0625 17.59375 -26.0625 Z M 14.828125 -11.140625 C 13.910156 -11.140625 13.160156 -10.785156 12.578125 -10.078125 C 12.003906 -9.367188 11.71875 -8.601562 11.71875 -7.78125 C 11.71875 -7.257812 11.84375 -6.832031 12.09375 -6.5 C 12.34375 -6.175781 12.695312 -6.015625 13.15625 -6.015625 C 13.582031 -6.015625 14.050781 -6.1875 14.5625 -6.53125 C 15.070312 -6.875 15.441406 -7.390625 15.671875 -8.078125 L 16.703125 -10.984375 C 16.140625 -11.085938 15.515625 -11.140625 14.828125 -11.140625 Z M 14.828125 -11.140625 "/></g></g></g><g fill="#ffc901" fill-opacity="1"><g transform="translate(291.189726, 201.303211)"><g><path d="M 16.203125 -26.5 C 18.929688 -26.5 21.289062 -26.253906 23.28125 -25.765625 C 25.269531 -25.273438 26.796875 -24.582031 27.859375 -23.6875 C 28.921875 -22.800781 29.453125 -21.800781 29.453125 -20.6875 C 29.453125 -19.539062 29 -18.601562 28.09375 -17.875 C 27.195312 -17.15625 25.945312 -16.796875 24.34375 -16.796875 C 22.695312 -16.796875 21.304688 -17.207031 20.171875 -18.03125 C 19.035156 -18.851562 18.46875 -19.890625 18.46875 -21.140625 C 18.46875 -21.566406 18.535156 -21.972656 18.671875 -22.359375 C 18.078125 -22.523438 17.550781 -22.609375 17.09375 -22.609375 C 16.269531 -22.609375 15.585938 -22.410156 15.046875 -22.015625 C 14.503906 -21.628906 14.25 -21.070312 14.28125 -20.34375 C 14.28125 -19.488281 14.707031 -18.765625 15.5625 -18.171875 C 16.414062 -17.585938 17.796875 -16.851562 19.703125 -15.96875 C 21.347656 -15.238281 22.703125 -14.570312 23.765625 -13.96875 C 24.835938 -13.363281 25.742188 -12.597656 26.484375 -11.671875 C 27.222656 -10.753906 27.59375 -9.671875 27.59375 -8.421875 C 27.59375 -8.160156 27.523438 -7.671875 27.390625 -6.953125 C 26.867188 -4.742188 25.40625 -3 23 -1.71875 C 20.601562 -0.4375 17.453125 0.203125 13.546875 0.203125 C 9.148438 0.203125 5.660156 -0.382812 3.078125 -1.5625 C 0.503906 -2.75 -0.78125 -4.378906 -0.78125 -6.453125 C -0.78125 -7.867188 -0.351562 -8.9375 0.5 -9.65625 C 1.351562 -10.375 2.484375 -10.734375 3.890625 -10.734375 C 5.535156 -10.734375 6.941406 -10.222656 8.109375 -9.203125 C 9.273438 -8.191406 9.859375 -6.898438 9.859375 -5.328125 C 9.859375 -4.898438 9.804688 -4.453125 9.703125 -3.984375 C 10.492188 -3.785156 11.25 -3.6875 11.96875 -3.6875 C 12.820312 -3.6875 13.523438 -3.914062 14.078125 -4.375 C 14.640625 -4.84375 14.921875 -5.488281 14.921875 -6.3125 C 14.890625 -7.0625 14.507812 -7.707031 13.78125 -8.25 C 13.0625 -8.789062 11.914062 -9.441406 10.34375 -10.203125 C 8.863281 -10.890625 7.644531 -11.535156 6.6875 -12.140625 C 5.738281 -12.753906 4.925781 -13.519531 4.25 -14.4375 C 3.582031 -15.351562 3.25 -16.4375 3.25 -17.6875 C 3.25 -20.375 4.375 -22.515625 6.625 -24.109375 C 8.875 -25.703125 12.066406 -26.5 16.203125 -26.5 Z M 16.203125 -26.5 "/></g></g></g></svg>