<svg xmlns="http://www.w3.org/2000/svg" xmlns:xlink="http://www.w3.org/1999/xlink" width="500" zoomAndPan="magnify" viewBox="0 0 375 374.999991" height="500" preserveAspectRatio="xMidYMid meet" version="1.0"><defs><g/></defs><g fill="#ffc901" fill-opacity="1"><g transform="translate(79.589054, 170.999989)"><g><path d="M 34.953125 -26.640625 C 35.515625 -26.640625 35.945312 -26.546875 36.25 -26.359375 C 36.5625 -26.171875 36.71875 -25.929688 36.71875 -25.640625 C 36.71875 -25.503906 36.675781 -25.332031 36.59375 -25.125 C 36.519531 -24.9375 36.410156 -24.769531 36.265625 -24.625 C 36.117188 -24.476562 35.984375 -24.367188 35.859375 -24.296875 C 35.742188 -24.234375 35.65625 -24.175781 35.59375 -24.125 C 35.164062 -23.882812 34.816406 -23.613281 34.546875 -23.3125 C 34.285156 -23.019531 34.0625 -22.566406 33.875 -21.953125 L 28.953125 -4.71875 C 28.847656 -4.375 28.796875 -4.039062 28.796875 -3.71875 C 28.796875 -3.394531 28.84375 -3.140625 28.9375 -2.953125 C 29.03125 -2.773438 29.171875 -2.535156 29.359375 -2.234375 C 29.390625 -2.210938 29.460938 -2.113281 29.578125 -1.9375 C 29.703125 -1.769531 29.765625 -1.59375 29.765625 -1.40625 C 29.765625 -1.34375 29.738281 -1.207031 29.6875 -1 C 29.550781 -0.625 29.296875 -0.363281 28.921875 -0.21875 C 28.546875 -0.0703125 27.984375 0 27.234375 0 L 17.84375 0 C 17.28125 0 16.84375 -0.09375 16.53125 -0.28125 C 16.226562 -0.46875 16.078125 -0.722656 16.078125 -1.046875 C 16.078125 -1.203125 16.117188 -1.375 16.203125 -1.5625 C 16.304688 -1.769531 16.453125 -1.945312 16.640625 -2.09375 C 16.828125 -2.238281 17.015625 -2.367188 17.203125 -2.484375 C 17.628906 -2.722656 17.972656 -2.992188 18.234375 -3.296875 C 18.503906 -3.609375 18.734375 -4.082031 18.921875 -4.71875 L 20.84375 -11.40625 L 13.765625 -11.40625 L 11.84375 -4.71875 C 11.738281 -4.375 11.6875 -4.039062 11.6875 -3.71875 C 11.6875 -3.394531 11.726562 -3.140625 11.8125 -2.953125 C 11.90625 -2.773438 12.046875 -2.535156 12.234375 -2.234375 C 12.265625 -2.210938 12.335938 -2.113281 12.453125 -1.9375 C 12.578125 -1.769531 12.640625 -1.59375 12.640625 -1.40625 C 12.640625 -1.34375 12.613281 -1.207031 12.5625 -1 C 12.425781 -0.625 12.171875 -0.363281 11.796875 -0.21875 C 11.421875 -0.0703125 10.863281 0 10.125 0 L 0.71875 0 C 0.15625 0 -0.273438 -0.09375 -0.578125 -0.28125 C -0.890625 -0.46875 -1.046875 -0.722656 -1.046875 -1.046875 C -1.046875 -1.203125 -1.003906 -1.375 -0.921875 -1.5625 C -0.816406 -1.769531 -0.671875 -1.945312 -0.484375 -2.09375 C -0.296875 -2.238281 -0.109375 -2.367188 0.078125 -2.484375 C 0.503906 -2.722656 0.847656 -2.992188 1.109375 -3.296875 C 1.378906 -3.609375 1.609375 -4.082031 1.796875 -4.71875 L 6.71875 -21.953125 C 6.820312 -22.304688 6.875 -22.640625 6.875 -22.953125 C 6.875 -23.253906 6.828125 -23.503906 6.734375 -23.703125 C 6.640625 -23.898438 6.515625 -24.132812 6.359375 -24.40625 C 6.253906 -24.53125 6.160156 -24.664062 6.078125 -24.8125 C 5.992188 -24.96875 5.953125 -25.125 5.953125 -25.28125 C 5.953125 -25.332031 5.984375 -25.46875 6.046875 -25.6875 C 6.148438 -26.03125 6.382812 -26.273438 6.75 -26.421875 C 7.125 -26.566406 7.6875 -26.640625 8.4375 -26.640625 L 17.84375 -26.640625 C 18.40625 -26.640625 18.835938 -26.546875 19.140625 -26.359375 C 19.441406 -26.171875 19.59375 -25.929688 19.59375 -25.640625 C 19.59375 -25.503906 19.554688 -25.332031 19.484375 -25.125 C 19.398438 -24.9375 19.285156 -24.769531 19.140625 -24.625 C 18.992188 -24.476562 18.859375 -24.367188 18.734375 -24.296875 C 18.617188 -24.234375 18.535156 -24.175781 18.484375 -24.125 C 18.054688 -23.882812 17.707031 -23.613281 17.4375 -23.3125 C 17.175781 -23.019531 16.953125 -22.566406 16.765625 -21.953125 L 14.875 -15.40625 L 21.953125 -15.40625 L 23.84375 -21.953125 C 23.945312 -22.304688 24 -22.640625 24 -22.953125 C 24 -23.253906 23.953125 -23.503906 23.859375 -23.703125 C 23.765625 -23.898438 23.640625 -24.132812 23.484375 -24.40625 C 23.367188 -24.53125 23.269531 -24.664062 23.1875 -24.8125 C 23.113281 -24.96875 23.078125 -25.125 23.078125 -25.28125 C 23.078125 -25.332031 23.101562 -25.46875 23.15625 -25.6875 C 23.257812 -26.03125 23.5 -26.273438 23.875 -26.421875 C 24.25 -26.566406 24.8125 -26.640625 25.5625 -26.640625 Z M 34.953125 -26.640625 "/></g></g></g><g fill="#ffc901" fill-opacity="1"><g transform="translate(112.945741, 170.999989)"><g><path d="M 13.5625 -21.359375 C 16.945312 -21.359375 19.398438 -20.816406 20.921875 -19.734375 C 22.441406 -18.660156 23.203125 -17.28125 23.203125 -15.59375 C 23.203125 -15.09375 23.148438 -14.628906 23.046875 -14.203125 C 22.640625 -12.441406 21.519531 -11.179688 19.6875 -10.421875 C 17.863281 -9.660156 15.710938 -9.28125 13.234375 -9.28125 C 11.984375 -9.28125 10.8125 -9.359375 9.71875 -9.515625 C 9.695312 -8.128906 10.070312 -7.15625 10.84375 -6.59375 C 11.613281 -6.039062 12.691406 -5.765625 14.078125 -5.765625 C 14.722656 -5.765625 15.335938 -5.835938 15.921875 -5.984375 C 16.503906 -6.128906 17.25 -6.347656 18.15625 -6.640625 C 18.90625 -6.910156 19.414062 -7.046875 19.6875 -7.046875 C 19.976562 -7.046875 20.125 -6.867188 20.125 -6.515625 C 20.144531 -5.585938 19.796875 -4.609375 19.078125 -3.578125 C 18.359375 -2.554688 17.289062 -1.679688 15.875 -0.953125 C 14.46875 -0.234375 12.765625 0.125 10.765625 0.125 C 7.796875 0.125 5.363281 -0.617188 3.46875 -2.109375 C 1.582031 -3.609375 0.640625 -5.785156 0.640625 -8.640625 C 0.640625 -9.441406 0.742188 -10.375 0.953125 -11.4375 C 1.617188 -14.71875 3.078125 -17.191406 5.328125 -18.859375 C 7.585938 -20.523438 10.332031 -21.359375 13.5625 -21.359375 Z M 10 -11.921875 C 10.101562 -11.890625 10.25 -11.875 10.4375 -11.875 C 11.5625 -11.875 12.414062 -12.394531 13 -13.4375 C 13.582031 -14.476562 13.863281 -15.640625 13.84375 -16.921875 C 13.8125 -17.671875 13.597656 -18.046875 13.203125 -18.046875 C 12.910156 -18.046875 12.5625 -17.8125 12.15625 -17.34375 C 11.757812 -16.875 11.367188 -16.171875 10.984375 -15.234375 C 10.597656 -14.304688 10.269531 -13.203125 10 -11.921875 Z M 10 -11.921875 "/></g></g></g><g fill="#ffc901" fill-opacity="1"><g transform="translate(135.343521, 170.999989)"><g><path d="M 12.765625 -29.5625 C 14.304688 -29.5625 15.441406 -29.265625 16.171875 -28.671875 C 16.910156 -28.085938 17.28125 -27.289062 17.28125 -26.28125 C 17.28125 -25.695312 17.1875 -25.125 17 -24.5625 L 10.71875 -4.15625 C 10.632812 -3.84375 10.59375 -3.5625 10.59375 -3.3125 C 10.59375 -2.96875 10.660156 -2.695312 10.796875 -2.5 C 10.929688 -2.300781 11.117188 -2.109375 11.359375 -1.921875 C 11.546875 -1.734375 11.675781 -1.578125 11.75 -1.453125 C 11.832031 -1.335938 11.847656 -1.1875 11.796875 -1 C 11.660156 -0.65625 11.394531 -0.398438 11 -0.234375 C 10.601562 -0.078125 9.988281 0 9.15625 0 L 0.046875 0 C -0.648438 0 -1.15625 -0.113281 -1.46875 -0.34375 C -1.789062 -0.570312 -1.898438 -0.867188 -1.796875 -1.234375 C -1.691406 -1.554688 -1.410156 -1.835938 -0.953125 -2.078125 C -0.554688 -2.296875 -0.226562 -2.550781 0.03125 -2.84375 C 0.300781 -3.132812 0.53125 -3.597656 0.71875 -4.234375 L 6.796875 -24.203125 C 6.878906 -24.441406 6.921875 -24.640625 6.921875 -24.796875 C 6.921875 -25.085938 6.847656 -25.328125 6.703125 -25.515625 C 6.554688 -25.703125 6.363281 -25.890625 6.125 -26.078125 C 5.851562 -26.296875 5.65625 -26.484375 5.53125 -26.640625 C 5.414062 -26.796875 5.398438 -27.007812 5.484375 -27.28125 C 5.640625 -27.894531 6.476562 -28.425781 8 -28.875 C 9.519531 -29.332031 11.109375 -29.5625 12.765625 -29.5625 Z M 12.765625 -29.5625 "/></g></g></g><g fill="#ffc901" fill-opacity="1"><g transform="translate(149.982069, 170.999989)"><g><path d="M 20.921875 -21.3125 C 22.972656 -21.3125 24.582031 -20.628906 25.75 -19.265625 C 26.925781 -17.910156 27.515625 -16.0625 27.515625 -13.71875 C 27.515625 -12.46875 27.34375 -11.148438 27 -9.765625 C 26.195312 -6.453125 24.703125 -3.9375 22.515625 -2.21875 C 20.328125 -0.5 17.796875 0.359375 14.921875 0.359375 C 13.078125 0.359375 11.476562 -0.0234375 10.125 -0.796875 L 8.84375 3.484375 C 8.738281 3.773438 8.6875 4.050781 8.6875 4.3125 C 8.6875 4.613281 8.75 4.863281 8.875 5.0625 C 9.007812 5.257812 9.1875 5.453125 9.40625 5.640625 C 9.613281 5.847656 9.75 6.019531 9.8125 6.15625 C 9.882812 6.289062 9.894531 6.453125 9.84375 6.640625 C 9.738281 6.984375 9.484375 7.226562 9.078125 7.375 C 8.679688 7.519531 8.066406 7.59375 7.234375 7.59375 L -1.921875 7.59375 C -2.609375 7.59375 -3.101562 7.476562 -3.40625 7.25 C -3.71875 7.03125 -3.8125 6.75 -3.6875 6.40625 C -3.625 6.1875 -3.523438 6.007812 -3.390625 5.875 C -3.265625 5.75 -3.082031 5.628906 -2.84375 5.515625 C -2.4375 5.253906 -2.113281 4.984375 -1.875 4.703125 C -1.632812 4.421875 -1.421875 3.972656 -1.234375 3.359375 L 4.59375 -15.796875 C 4.675781 -16.035156 4.71875 -16.238281 4.71875 -16.40625 C 4.71875 -16.695312 4.648438 -16.925781 4.515625 -17.09375 C 4.378906 -17.269531 4.179688 -17.453125 3.921875 -17.640625 C 3.648438 -17.847656 3.460938 -18.03125 3.359375 -18.1875 C 3.253906 -18.351562 3.238281 -18.570312 3.3125 -18.84375 C 3.476562 -19.457031 4.320312 -19.992188 5.84375 -20.453125 C 7.363281 -20.921875 8.945312 -21.15625 10.59375 -21.15625 C 11.769531 -21.15625 12.738281 -20.863281 13.5 -20.28125 C 14.257812 -19.695312 14.691406 -18.882812 14.796875 -17.84375 C 16.609375 -20.15625 18.648438 -21.3125 20.921875 -21.3125 Z M 16.28125 -9.4375 C 16.914062 -11.8125 17.234375 -13.453125 17.234375 -14.359375 C 17.234375 -14.921875 17.144531 -15.285156 16.96875 -15.453125 C 16.800781 -15.628906 16.554688 -15.71875 16.234375 -15.71875 C 15.992188 -15.71875 15.6875 -15.601562 15.3125 -15.375 C 14.945312 -15.15625 14.578125 -14.773438 14.203125 -14.234375 L 11.046875 -3.765625 C 11.359375 -3.441406 11.742188 -3.28125 12.203125 -3.28125 C 12.921875 -3.28125 13.601562 -3.6875 14.25 -4.5 C 14.90625 -5.3125 15.582031 -6.957031 16.28125 -9.4375 Z M 16.28125 -9.4375 "/></g></g></g><g fill="#ffc901" fill-opacity="1"><g transform="translate(177.61932, 170.999989)"><g><path d="M 19.15625 -26.640625 C 23.15625 -26.640625 26.164062 -25.875 28.1875 -24.34375 C 30.21875 -22.8125 31.234375 -20.5625 31.234375 -17.59375 C 31.234375 -16.132812 30.96875 -14.441406 30.4375 -12.515625 C 29.5625 -9.421875 28.375 -6.96875 26.875 -5.15625 C 25.382812 -3.34375 23.414062 -2.019531 20.96875 -1.1875 C 18.53125 -0.363281 15.40625 0.03125 11.59375 0 L 0.71875 -0.046875 C 0.15625 -0.046875 -0.273438 -0.132812 -0.578125 -0.3125 C -0.890625 -0.5 -1.046875 -0.753906 -1.046875 -1.078125 C -1.046875 -1.234375 -1.003906 -1.40625 -0.921875 -1.59375 C -0.835938 -1.832031 -0.722656 -2.003906 -0.578125 -2.109375 C -0.429688 -2.222656 -0.210938 -2.375 0.078125 -2.5625 C 0.503906 -2.800781 0.84375 -3.066406 1.09375 -3.359375 C 1.351562 -3.648438 1.578125 -4.117188 1.765625 -4.765625 L 6.640625 -21.953125 C 6.742188 -22.304688 6.796875 -22.640625 6.796875 -22.953125 C 6.796875 -23.253906 6.75 -23.503906 6.65625 -23.703125 C 6.5625 -23.898438 6.4375 -24.132812 6.28125 -24.40625 C 6.039062 -24.75 5.921875 -25.023438 5.921875 -25.234375 C 5.921875 -25.316406 5.945312 -25.46875 6 -25.6875 C 6.101562 -26.03125 6.332031 -26.273438 6.6875 -26.421875 C 7.050781 -26.566406 7.609375 -26.640625 8.359375 -26.640625 Z M 20.203125 -13.40625 C 20.890625 -15.90625 21.234375 -17.875 21.234375 -19.3125 C 21.234375 -20.726562 20.941406 -21.703125 20.359375 -22.234375 C 19.773438 -22.773438 18.9375 -23.046875 17.84375 -23.046875 L 16.953125 -23.046875 L 11.5625 -3.59375 L 12.515625 -3.59375 C 13.742188 -3.59375 14.773438 -3.851562 15.609375 -4.375 C 16.453125 -4.894531 17.234375 -5.851562 17.953125 -7.25 C 18.679688 -8.65625 19.429688 -10.707031 20.203125 -13.40625 Z M 20.203125 -13.40625 "/></g></g></g><g fill="#ffc901" fill-opacity="1"><g transform="translate(208.496255, 170.999989)"><g><path d="M 13.5625 -21.359375 C 16.945312 -21.359375 19.398438 -20.816406 20.921875 -19.734375 C 22.441406 -18.660156 23.203125 -17.28125 23.203125 -15.59375 C 23.203125 -15.09375 23.148438 -14.628906 23.046875 -14.203125 C 22.640625 -12.441406 21.519531 -11.179688 19.6875 -10.421875 C 17.863281 -9.660156 15.710938 -9.28125 13.234375 -9.28125 C 11.984375 -9.28125 10.8125 -9.359375 9.71875 -9.515625 C 9.695312 -8.128906 10.070312 -7.15625 10.84375 -6.59375 C 11.613281 -6.039062 12.691406 -5.765625 14.078125 -5.765625 C 14.722656 -5.765625 15.335938 -5.835938 15.921875 -5.984375 C 16.503906 -6.128906 17.25 -6.347656 18.15625 -6.640625 C 18.90625 -6.910156 19.414062 -7.046875 19.6875 -7.046875 C 19.976562 -7.046875 20.125 -6.867188 20.125 -6.515625 C 20.144531 -5.585938 19.796875 -4.609375 19.078125 -3.578125 C 18.359375 -2.554688 17.289062 -1.679688 15.875 -0.953125 C 14.46875 -0.234375 12.765625 0.125 10.765625 0.125 C 7.796875 0.125 5.363281 -0.617188 3.46875 -2.109375 C 1.582031 -3.609375 0.640625 -5.785156 0.640625 -8.640625 C 0.640625 -9.441406 0.742188 -10.375 0.953125 -11.4375 C 1.617188 -14.71875 3.078125 -17.191406 5.328125 -18.859375 C 7.585938 -20.523438 10.332031 -21.359375 13.5625 -21.359375 Z M 10 -11.921875 C 10.101562 -11.890625 10.25 -11.875 10.4375 -11.875 C 11.5625 -11.875 12.414062 -12.394531 13 -13.4375 C 13.582031 -14.476562 13.863281 -15.640625 13.84375 -16.921875 C 13.8125 -17.671875 13.597656 -18.046875 13.203125 -18.046875 C 12.910156 -18.046875 12.5625 -17.8125 12.15625 -17.34375 C 11.757812 -16.875 11.367188 -16.171875 10.984375 -15.234375 C 10.597656 -14.304688 10.269531 -13.203125 10 -11.921875 Z M 10 -11.921875 "/></g></g></g><g fill="#ffc901" fill-opacity="1"><g transform="translate(230.894035, 170.999989)"><g><path d="M 12.765625 -29.5625 C 14.304688 -29.5625 15.441406 -29.265625 16.171875 -28.671875 C 16.910156 -28.085938 17.28125 -27.289062 17.28125 -26.28125 C 17.28125 -25.695312 17.1875 -25.125 17 -24.5625 L 10.71875 -4.15625 C 10.632812 -3.84375 10.59375 -3.5625 10.59375 -3.3125 C 10.59375 -2.96875 10.660156 -2.695312 10.796875 -2.5 C 10.929688 -2.300781 11.117188 -2.109375 11.359375 -1.921875 C 11.546875 -1.734375 11.675781 -1.578125 11.75 -1.453125 C 11.832031 -1.335938 11.847656 -1.1875 11.796875 -1 C 11.660156 -0.65625 11.394531 -0.398438 11 -0.234375 C 10.601562 -0.078125 9.988281 0 9.15625 0 L 0.046875 0 C -0.648438 0 -1.15625 -0.113281 -1.46875 -0.34375 C -1.789062 -0.570312 -1.898438 -0.867188 -1.796875 -1.234375 C -1.691406 -1.554688 -1.410156 -1.835938 -0.953125 -2.078125 C -0.554688 -2.296875 -0.226562 -2.550781 0.03125 -2.84375 C 0.300781 -3.132812 0.53125 -3.597656 0.71875 -4.234375 L 6.796875 -24.203125 C 6.878906 -24.441406 6.921875 -24.640625 6.921875 -24.796875 C 6.921875 -25.085938 6.847656 -25.328125 6.703125 -25.515625 C 6.554688 -25.703125 6.363281 -25.890625 6.125 -26.078125 C 5.851562 -26.296875 5.65625 -26.484375 5.53125 -26.640625 C 5.414062 -26.796875 5.398438 -27.007812 5.484375 -27.28125 C 5.640625 -27.894531 6.476562 -28.425781 8 -28.875 C 9.519531 -29.332031 11.109375 -29.5625 12.765625 -29.5625 Z M 12.765625 -29.5625 "/></g></g></g><g fill="#ffc901" fill-opacity="1"><g transform="translate(245.532583, 170.999989)"><g><path d="M 14.28125 -21.15625 C 17.34375 -21.15625 19.796875 -20.585938 21.640625 -19.453125 C 23.484375 -18.328125 24.40625 -16.601562 24.40625 -14.28125 C 24.40625 -13.394531 24.242188 -12.394531 23.921875 -11.28125 L 22.28125 -5.765625 C 22.25 -5.648438 22.234375 -5.515625 22.234375 -5.359375 C 22.234375 -4.929688 22.410156 -4.71875 22.765625 -4.71875 C 23.078125 -4.71875 23.347656 -4.859375 23.578125 -5.140625 C 23.804688 -5.421875 23.960938 -5.5625 24.046875 -5.5625 C 24.171875 -5.5625 24.28125 -5.46875 24.375 -5.28125 C 24.46875 -5.09375 24.515625 -4.878906 24.515625 -4.640625 C 24.546875 -3.921875 24.273438 -3.1875 23.703125 -2.4375 C 23.128906 -1.6875 22.359375 -1.070312 21.390625 -0.59375 C 20.429688 -0.113281 19.378906 0.125 18.234375 0.125 C 16.847656 0.125 15.660156 -0.128906 14.671875 -0.640625 C 13.691406 -1.148438 13.015625 -1.894531 12.640625 -2.875 C 11.835938 -1.914062 10.890625 -1.175781 9.796875 -0.65625 C 8.703125 -0.132812 7.53125 0.125 6.28125 0.125 C 4.863281 0.125 3.675781 -0.144531 2.71875 -0.6875 C 1.757812 -1.238281 1.046875 -1.945312 0.578125 -2.8125 C 0.109375 -3.6875 -0.125 -4.601562 -0.125 -5.5625 C -0.125 -5.988281 -0.0820312 -6.398438 0 -6.796875 C 0.425781 -8.640625 1.351562 -10.023438 2.78125 -10.953125 C 4.207031 -11.890625 5.90625 -12.359375 7.875 -12.359375 C 10.09375 -12.359375 12.269531 -12.007812 14.40625 -11.3125 L 15.40625 -13.953125 C 15.75 -15.078125 15.921875 -15.945312 15.921875 -16.5625 C 15.890625 -17.195312 15.675781 -17.675781 15.28125 -18 C 14.882812 -18.320312 14.269531 -18.484375 13.4375 -18.484375 C 13.601562 -18.054688 13.6875 -17.613281 13.6875 -17.15625 C 13.6875 -16.175781 13.3125 -15.320312 12.5625 -14.59375 C 11.8125 -13.875 10.742188 -13.515625 9.359375 -13.515625 C 8.054688 -13.515625 7.035156 -13.800781 6.296875 -14.375 C 5.566406 -14.945312 5.203125 -15.660156 5.203125 -16.515625 C 5.203125 -17.847656 5.945312 -18.953125 7.4375 -19.828125 C 8.9375 -20.710938 11.21875 -21.15625 14.28125 -21.15625 Z M 12.046875 -9.046875 C 11.296875 -9.046875 10.6875 -8.753906 10.21875 -8.171875 C 9.75 -7.597656 9.515625 -6.976562 9.515625 -6.3125 C 9.515625 -5.894531 9.613281 -5.550781 9.8125 -5.28125 C 10.019531 -5.007812 10.3125 -4.875 10.6875 -4.875 C 11.03125 -4.875 11.40625 -5.015625 11.8125 -5.296875 C 12.226562 -5.578125 12.53125 -6 12.71875 -6.5625 L 13.5625 -8.921875 C 13.101562 -9.003906 12.597656 -9.046875 12.046875 -9.046875 Z M 12.046875 -9.046875 "/></g></g></g><g fill="#ffc901" fill-opacity="1"><g transform="translate(271.689976, 170.999989)"><g><path d="M 13.15625 -21.515625 C 15.375 -21.515625 17.285156 -21.3125 18.890625 -20.90625 C 20.503906 -20.507812 21.742188 -19.953125 22.609375 -19.234375 C 23.484375 -18.515625 23.921875 -17.703125 23.921875 -16.796875 C 23.921875 -15.867188 23.550781 -15.109375 22.8125 -14.515625 C 22.082031 -13.929688 21.066406 -13.640625 19.765625 -13.640625 C 18.429688 -13.640625 17.300781 -13.972656 16.375 -14.640625 C 15.457031 -15.304688 15 -16.144531 15 -17.15625 C 15 -17.507812 15.050781 -17.84375 15.15625 -18.15625 C 14.675781 -18.289062 14.25 -18.359375 13.875 -18.359375 C 13.207031 -18.359375 12.65625 -18.195312 12.21875 -17.875 C 11.78125 -17.5625 11.570312 -17.109375 11.59375 -16.515625 C 11.59375 -15.828125 11.941406 -15.242188 12.640625 -14.765625 C 13.335938 -14.285156 14.457031 -13.679688 16 -12.953125 C 17.332031 -12.367188 18.429688 -11.828125 19.296875 -11.328125 C 20.160156 -10.835938 20.894531 -10.21875 21.5 -9.46875 C 22.101562 -8.726562 22.40625 -7.851562 22.40625 -6.84375 C 22.40625 -6.625 22.347656 -6.222656 22.234375 -5.640625 C 21.804688 -3.847656 20.617188 -2.429688 18.671875 -1.390625 C 16.734375 -0.359375 14.175781 0.15625 11 0.15625 C 7.425781 0.15625 4.59375 -0.320312 2.5 -1.28125 C 0.40625 -2.238281 -0.640625 -3.554688 -0.640625 -5.234375 C -0.640625 -6.378906 -0.296875 -7.242188 0.390625 -7.828125 C 1.085938 -8.421875 2.007812 -8.71875 3.15625 -8.71875 C 4.488281 -8.71875 5.628906 -8.300781 6.578125 -7.46875 C 7.523438 -6.644531 8 -5.59375 8 -4.3125 C 8 -3.96875 7.957031 -3.609375 7.875 -3.234375 C 8.519531 -3.078125 9.132812 -3 9.71875 -3 C 10.414062 -3 10.988281 -3.1875 11.4375 -3.5625 C 11.894531 -3.9375 12.125 -4.457031 12.125 -5.125 C 12.09375 -5.738281 11.78125 -6.265625 11.1875 -6.703125 C 10.601562 -7.140625 9.675781 -7.664062 8.40625 -8.28125 C 7.195312 -8.84375 6.207031 -9.367188 5.4375 -9.859375 C 4.664062 -10.347656 4.003906 -10.96875 3.453125 -11.71875 C 2.910156 -12.46875 2.640625 -13.347656 2.640625 -14.359375 C 2.640625 -16.546875 3.550781 -18.285156 5.375 -19.578125 C 7.207031 -20.867188 9.800781 -21.515625 13.15625 -21.515625 Z M 13.15625 -21.515625 "/></g></g></g></svg>
