<svg xmlns="http://www.w3.org/2000/svg" xmlns:xlink="http://www.w3.org/1999/xlink" width="500" zoomAndPan="magnify" viewBox="0 0 375 374.999991" height="500" preserveAspectRatio="xMidYMid meet" version="1.0"><defs><g/><clipPath id="b884de8683"><path d="M 120 104 L 285 104 L 285 309.3125 L 120 309.3125 Z M 120 104 " clip-rule="nonzero"/></clipPath><clipPath id="510024f7f0"><path d="M 257 81 L 334.894531 81 L 334.894531 149 L 257 149 Z M 257 81 " clip-rule="nonzero"/></clipPath><clipPath id="17c08e6e1c"><path d="M 40.144531 14.5625 L 54 14.5625 L 54 28 L 40.144531 28 Z M 40.144531 14.5625 " clip-rule="nonzero"/></clipPath></defs><path fill="#000000" d="M 297.761719 140.773438 C 297.117188 140.773438 296.613281 141.277344 296.613281 141.921875 L 296.613281 153.425781 C 296.613281 154.070312 297.117188 154.574219 297.761719 154.574219 C 298.40625 154.574219 298.914062 154.070312 298.914062 153.425781 L 298.914062 141.921875 C 298.914062 141.300781 298.40625 140.773438 297.761719 140.773438 Z M 297.761719 140.773438 " fill-opacity="1" fill-rule="nonzero"/><path fill="#000000" d="M 297.761719 278.808594 C 297.324219 278.808594 296.957031 279.035156 296.75 279.40625 L 286.859375 279.40625 C 286.214844 279.40625 285.707031 279.910156 285.707031 280.554688 C 285.707031 281.199219 286.214844 281.707031 286.859375 281.707031 L 297.761719 281.707031 C 298.40625 281.707031 298.914062 281.199219 298.914062 280.554688 L 298.914062 279.957031 C 298.914062 279.335938 298.40625 278.808594 297.761719 278.808594 Z M 297.761719 278.808594 " fill-opacity="1" fill-rule="nonzero"/><path fill="#000000" d="M 297.761719 163.777344 C 297.117188 163.777344 296.613281 164.285156 296.613281 164.929688 L 296.613281 176.429688 C 296.613281 177.074219 297.117188 177.582031 297.761719 177.582031 C 298.40625 177.582031 298.914062 177.074219 298.914062 176.429688 L 298.914062 164.929688 C 298.914062 164.308594 298.40625 163.777344 297.761719 163.777344 Z M 297.761719 163.777344 " fill-opacity="1" fill-rule="nonzero"/><path fill="#000000" d="M 297.761719 186.785156 C 297.117188 186.785156 296.613281 187.289062 296.613281 187.933594 L 296.613281 199.4375 C 296.613281 200.082031 297.117188 200.585938 297.761719 200.585938 C 298.40625 200.585938 298.914062 200.082031 298.914062 199.4375 L 298.914062 187.933594 C 298.914062 187.3125 298.40625 186.785156 297.761719 186.785156 Z M 297.761719 186.785156 " fill-opacity="1" fill-rule="nonzero"/><path fill="#000000" d="M 297.761719 232.796875 C 297.117188 232.796875 296.613281 233.300781 296.613281 233.945312 L 296.613281 245.449219 C 296.613281 246.09375 297.117188 246.597656 297.761719 246.597656 C 298.40625 246.597656 298.914062 246.09375 298.914062 245.449219 L 298.914062 233.945312 C 298.914062 233.324219 298.40625 232.796875 297.761719 232.796875 Z M 297.761719 232.796875 " fill-opacity="1" fill-rule="nonzero"/><path fill="#000000" d="M 297.761719 209.789062 C 297.117188 209.789062 296.613281 210.296875 296.613281 210.941406 L 296.613281 222.441406 C 296.613281 223.085938 297.117188 223.59375 297.761719 223.59375 C 298.40625 223.59375 298.914062 223.085938 298.914062 222.441406 L 298.914062 210.941406 C 298.914062 210.320312 298.40625 209.789062 297.761719 209.789062 Z M 297.761719 209.789062 " fill-opacity="1" fill-rule="nonzero"/><path fill="#000000" d="M 297.761719 255.800781 C 297.117188 255.800781 296.613281 256.308594 296.613281 256.953125 L 296.613281 268.453125 C 296.613281 269.097656 297.117188 269.605469 297.761719 269.605469 C 298.40625 269.605469 298.914062 269.097656 298.914062 268.453125 L 298.914062 256.953125 C 298.914062 256.328125 298.40625 255.800781 297.761719 255.800781 Z M 297.761719 255.800781 " fill-opacity="1" fill-rule="nonzero"/><path fill="#000000" d="M 78.378906 240.480469 C 77.734375 240.480469 77.230469 240.984375 77.230469 241.628906 L 77.230469 253.132812 C 77.230469 253.777344 77.734375 254.28125 78.378906 254.28125 C 79.023438 254.28125 79.53125 253.777344 79.53125 253.132812 L 79.53125 241.628906 C 79.53125 241.007812 79.023438 240.480469 78.378906 240.480469 Z M 78.378906 240.480469 " fill-opacity="1" fill-rule="nonzero"/><path fill="#000000" d="M 78.378906 263.484375 C 77.734375 263.484375 77.230469 263.992188 77.230469 264.636719 L 77.230469 276.136719 C 77.230469 276.78125 77.734375 277.289062 78.378906 277.289062 C 79.023438 277.289062 79.53125 276.78125 79.53125 276.136719 L 79.53125 264.636719 C 79.53125 264.015625 79.023438 263.484375 78.378906 263.484375 Z M 78.378906 263.484375 " fill-opacity="1" fill-rule="nonzero"/><path fill="#000000" d="M 96.96875 279.40625 L 85.464844 279.40625 C 84.820312 279.40625 84.316406 279.910156 84.316406 280.554688 C 84.316406 281.199219 84.820312 281.707031 85.464844 281.707031 L 96.96875 281.707031 C 97.613281 281.707031 98.117188 281.199219 98.117188 280.554688 C 98.117188 279.910156 97.613281 279.40625 96.96875 279.40625 Z M 96.96875 279.40625 " fill-opacity="1" fill-rule="nonzero"/><path fill="#000000" d="M 121.125 280.554688 C 121.125 279.910156 120.617188 279.40625 119.972656 279.40625 L 108.472656 279.40625 C 107.828125 279.40625 107.320312 279.910156 107.320312 280.554688 C 107.320312 281.199219 107.828125 281.707031 108.472656 281.707031 L 119.972656 281.707031 C 120.617188 281.707031 121.125 281.199219 121.125 280.554688 Z M 121.125 280.554688 " fill-opacity="1" fill-rule="nonzero"/><path fill="#000000" d="M 113.28125 229.390625 C 112.636719 229.390625 112.128906 229.898438 112.128906 230.539062 L 112.128906 242.042969 C 112.128906 242.6875 112.636719 243.195312 113.28125 243.195312 C 113.921875 243.195312 114.429688 242.6875 114.429688 242.042969 L 114.429688 230.539062 C 114.429688 229.917969 113.921875 229.390625 113.28125 229.390625 Z M 113.28125 229.390625 " fill-opacity="1" fill-rule="nonzero"/><path fill="#000000" d="M 114.429688 184.527344 C 114.429688 183.886719 113.921875 183.378906 113.28125 183.378906 C 112.636719 183.378906 112.128906 183.886719 112.128906 184.527344 L 112.128906 196.03125 C 112.128906 196.675781 112.636719 197.183594 113.28125 197.183594 C 113.921875 197.183594 114.429688 196.675781 114.429688 196.03125 Z M 114.429688 184.527344 " fill-opacity="1" fill-rule="nonzero"/><path fill="#000000" d="M 114.429688 207.535156 C 114.429688 206.890625 113.921875 206.382812 113.28125 206.382812 C 112.636719 206.382812 112.128906 206.890625 112.128906 207.535156 L 112.128906 219.039062 C 112.128906 219.683594 112.636719 220.1875 113.28125 220.1875 C 113.921875 220.1875 114.429688 219.683594 114.429688 219.039062 Z M 114.429688 207.535156 " fill-opacity="1" fill-rule="nonzero"/><path fill="#000000" d="M 118.410156 247.265625 C 117.765625 247.265625 117.257812 247.773438 117.257812 248.417969 C 117.257812 249.058594 117.765625 249.566406 118.410156 249.566406 L 129.914062 249.566406 C 130.558594 249.566406 131.0625 249.058594 131.0625 248.417969 C 131.0625 247.773438 130.558594 247.265625 129.914062 247.265625 Z M 118.410156 247.265625 " fill-opacity="1" fill-rule="nonzero"/><g clip-path="url(#b884de8683)"><path fill="#000000" d="M 251.128906 241.628906 L 251.0625 241.605469 C 257.871094 239.421875 264.773438 236.753906 271.652344 233.601562 C 271.949219 233.4375 272.179688 233.1875 272.273438 232.839844 C 272.363281 232.519531 272.296875 232.175781 272.109375 231.898438 C 264.839844 221.476562 259.597656 209.492188 256.488281 196.285156 C 257.777344 194.558594 258.5625 192.464844 258.5625 190.164062 L 258.5625 173.507812 C 258.5625 169.691406 256.445312 166.378906 253.359375 164.582031 L 253.359375 156.117188 C 253.359375 127.867188 230.378906 104.882812 202.152344 104.882812 C 188.460938 104.882812 175.578125 110.222656 165.917969 119.90625 C 156.230469 129.570312 150.917969 142.429688 150.917969 156.117188 L 150.917969 164.582031 C 147.835938 166.378906 145.71875 169.691406 145.71875 173.507812 L 145.71875 190.164062 C 145.71875 192.464844 146.5 194.558594 147.789062 196.285156 C 144.683594 209.492188 139.414062 221.476562 132.167969 231.898438 C 131.960938 232.175781 131.914062 232.519531 132.007812 232.839844 C 132.097656 233.1875 132.328125 233.4375 132.628906 233.601562 C 139.484375 236.753906 146.386719 239.421875 153.195312 241.605469 L 153.125 241.628906 C 149.328125 242.941406 145.785156 244.875 142.65625 247.265625 L 141.414062 247.265625 C 140.769531 247.265625 140.265625 247.773438 140.265625 248.417969 C 140.265625 248.644531 140.355469 248.875 140.472656 249.058594 C 134.492188 254.351562 130.1875 261.484375 128.464844 269.464844 L 120.160156 307.886719 C 120.089844 308.207031 120.160156 308.574219 120.386719 308.851562 C 120.59375 309.105469 120.941406 309.265625 121.285156 309.265625 L 282.992188 309.265625 C 283.335938 309.265625 283.660156 309.105469 283.890625 308.851562 C 284.097656 308.574219 284.1875 308.207031 284.121094 307.886719 L 275.816406 269.464844 C 273.03125 256.605469 263.574219 245.929688 251.128906 241.628906 Z M 202.152344 226.054688 C 180.132812 226.054688 170.125 209.054688 165.59375 194.722656 L 165.59375 168.65625 C 184.230469 168.308594 201.964844 160.511719 218.371094 145.441406 C 222.074219 153.910156 228.125 164.515625 238.683594 167.621094 L 238.683594 194.699219 C 236.933594 200.242188 234.359375 206.175781 230.585938 211.398438 L 213.929688 212.367188 C 212.917969 209.351562 209.238281 207.167969 204.726562 207.167969 C 199.367188 207.167969 195.203125 210.179688 195.203125 214.070312 C 195.203125 217.933594 199.367188 220.96875 204.726562 220.96875 C 209.765625 220.96875 213.746094 218.234375 214.160156 214.667969 L 228.699219 213.792969 C 222.765625 220.855469 214.296875 226.054688 202.152344 226.054688 Z M 219.105469 224.46875 L 219.105469 231.804688 L 202.152344 259.527344 L 185.171875 231.804688 L 185.171875 224.46875 C 189.910156 226.882812 195.503906 228.355469 202.152344 228.355469 C 208.800781 228.355469 214.367188 226.882812 219.105469 224.46875 Z M 202.152344 120.621094 C 226.652344 120.621094 247.519531 139.300781 250.484375 163.433594 C 249.75 163.25 248.992188 163.15625 248.207031 163.15625 L 245.816406 163.15625 C 242.753906 141.460938 224.191406 125.21875 202.152344 125.21875 C 180.109375 125.21875 161.523438 141.460938 158.460938 163.15625 L 156.070312 163.15625 C 155.289062 163.15625 154.527344 163.25 153.792969 163.433594 C 156.761719 139.300781 177.625 120.621094 202.152344 120.621094 Z M 240.984375 166.609375 C 240.984375 165.964844 241.492188 165.457031 242.132812 165.457031 L 244.621094 165.457031 L 244.621094 198.21875 L 242.132812 198.21875 C 241.492188 198.21875 240.984375 197.6875 240.984375 197.066406 Z M 162.144531 165.457031 C 162.765625 165.457031 163.292969 165.964844 163.292969 166.609375 L 163.292969 197.066406 C 163.292969 197.6875 162.765625 198.21875 162.144531 198.21875 L 159.660156 198.21875 L 159.660156 165.457031 Z M 239.511719 199.277344 C 240.15625 200.035156 241.078125 200.519531 242.132812 200.519531 L 248.207031 200.519531 C 248.4375 200.519531 248.644531 200.449219 248.875 200.449219 C 247.5625 206.246094 242.527344 210.6875 236.359375 211.054688 L 233.507812 211.214844 C 236.039062 207.421875 237.992188 203.324219 239.511719 199.277344 Z M 250.394531 284.835938 C 249.75 284.835938 249.242188 285.339844 249.242188 285.984375 L 249.242188 306.964844 L 155.035156 306.964844 L 155.035156 285.984375 C 155.035156 285.339844 154.527344 284.835938 153.882812 284.835938 L 127.496094 284.835938 L 130.71875 269.949219 C 133.316406 257.871094 142.199219 247.863281 153.882812 243.792969 L 183.539062 233.554688 L 201.160156 262.335938 C 201.367188 262.679688 201.738281 262.886719 202.152344 262.886719 C 202.542969 262.886719 202.910156 262.679688 203.140625 262.335938 L 220.738281 233.554688 L 250.371094 243.792969 C 262.058594 247.863281 270.960938 257.871094 273.558594 269.949219 L 276.78125 284.835938 Z M 250.394531 284.835938 " fill-opacity="1" fill-rule="nonzero"/></g><g clip-path="url(#510024f7f0)"><path fill="#000000" d="M 326.933594 81.96875 L 265.851562 81.96875 C 261.503906 81.96875 257.960938 85.535156 257.960938 89.882812 L 257.960938 123.726562 C 257.960938 128.097656 261.503906 131.640625 265.851562 131.640625 L 270.222656 131.640625 L 268.429688 147.582031 C 268.382812 147.996094 268.566406 148.433594 268.9375 148.664062 C 269.121094 148.800781 269.351562 148.847656 269.558594 148.847656 C 269.765625 148.847656 269.949219 148.800781 270.132812 148.710938 L 300.40625 131.640625 L 326.933594 131.640625 C 331.304688 131.640625 334.847656 128.097656 334.847656 123.726562 L 334.847656 89.882812 C 334.847656 85.535156 331.304688 81.96875 326.933594 81.96875 Z M 272.777344 118.386719 C 272.777344 117.742188 273.308594 117.238281 273.929688 117.238281 L 318.835938 117.238281 C 319.480469 117.238281 319.984375 117.742188 319.984375 118.386719 C 319.984375 119.03125 319.480469 119.539062 318.835938 119.539062 L 273.929688 119.539062 C 273.308594 119.539062 272.777344 119.03125 272.777344 118.386719 Z M 272.777344 106.816406 C 272.777344 106.171875 273.308594 105.664062 273.929688 105.664062 L 318.835938 105.664062 C 319.480469 105.664062 319.984375 106.171875 319.984375 106.816406 C 319.984375 107.4375 319.480469 107.964844 318.835938 107.964844 L 273.929688 107.964844 C 273.308594 107.964844 272.777344 107.4375 272.777344 106.816406 Z M 318.835938 96.394531 L 273.929688 96.394531 C 273.308594 96.394531 272.777344 95.867188 272.777344 95.242188 C 272.777344 94.601562 273.308594 94.09375 273.929688 94.09375 L 318.835938 94.09375 C 319.480469 94.09375 319.984375 94.601562 319.984375 95.242188 C 319.984375 95.867188 319.480469 96.394531 318.835938 96.394531 Z M 318.835938 96.394531 " fill-opacity="1" fill-rule="nonzero"/></g><path fill="#000000" d="M 79.347656 158.855469 C 78.933594 158.1875 77.851562 158.1875 77.414062 158.855469 L 56.664062 190.902344 C 56.457031 191.246094 56.433594 191.707031 56.640625 192.074219 C 56.824219 192.441406 57.214844 192.671875 57.628906 192.671875 L 65.40625 192.671875 L 65.40625 235.117188 C 65.40625 235.738281 65.910156 236.269531 66.554688 236.269531 L 90.226562 236.269531 C 90.847656 236.269531 91.378906 235.738281 91.378906 235.117188 L 91.378906 192.671875 L 99.132812 192.671875 C 99.546875 192.671875 99.9375 192.441406 100.144531 192.074219 C 100.351562 191.707031 100.328125 191.246094 100.097656 190.902344 Z M 59.746094 190.371094 L 78.378906 161.59375 L 97.015625 190.371094 Z M 59.746094 190.371094 " fill-opacity="1" fill-rule="nonzero"/><g clip-path="url(#17c08e6e1c)"><path fill="#000000" d="M 52.382812 27.953125 C 52.683594 27.953125 52.980469 27.835938 53.1875 27.605469 C 53.648438 27.148438 53.648438 26.433594 53.1875 25.972656 L 48.585938 21.371094 L 53.210938 16.75 C 53.671875 16.289062 53.671875 15.574219 53.210938 15.117188 C 52.75 14.65625 52.039062 14.65625 51.578125 15.117188 L 46.953125 19.738281 L 42.328125 15.136719 C 41.871094 14.679688 41.15625 14.679688 40.695312 15.136719 C 40.238281 15.597656 40.238281 16.3125 40.695312 16.773438 L 45.320312 21.394531 L 40.71875 25.996094 C 40.257812 26.457031 40.257812 27.171875 40.71875 27.628906 C 40.949219 27.859375 41.25 27.976562 41.523438 27.976562 C 41.800781 27.976562 42.121094 27.859375 42.328125 27.628906 L 46.953125 23.007812 L 51.578125 27.628906 C 51.785156 27.835938 52.085938 27.953125 52.382812 27.953125 Z M 52.382812 27.953125 " fill-opacity="1" fill-rule="nonzero"/></g><path fill="#000000" d="M 139.507812 59.675781 C 139.734375 59.90625 140.035156 60.023438 140.3125 60.023438 C 140.585938 60.023438 140.910156 59.90625 141.117188 59.675781 L 145.742188 55.054688 L 150.363281 59.675781 C 150.59375 59.90625 150.894531 60.023438 151.171875 60.023438 C 151.445312 60.023438 151.769531 59.90625 151.976562 59.675781 C 152.433594 59.21875 152.433594 58.503906 151.976562 58.042969 L 147.351562 53.417969 L 151.976562 48.796875 C 152.433594 48.335938 152.433594 47.621094 151.976562 47.164062 C 151.515625 46.703125 150.800781 46.703125 150.339844 47.164062 L 145.71875 51.785156 L 141.09375 47.164062 C 140.632812 46.703125 139.921875 46.703125 139.460938 47.164062 C 139 47.621094 139 48.335938 139.460938 48.796875 L 144.085938 53.417969 L 139.460938 58.042969 C 139.070312 58.503906 139.070312 59.238281 139.507812 59.675781 Z M 139.507812 59.675781 " fill-opacity="1" fill-rule="nonzero"/><path fill="#000000" d="M 307.125 34.117188 C 307.355469 34.347656 307.65625 34.464844 307.929688 34.464844 C 308.207031 34.464844 308.527344 34.347656 308.734375 34.117188 L 313.359375 29.492188 L 317.984375 34.117188 C 318.214844 34.347656 318.511719 34.464844 318.789062 34.464844 C 319.066406 34.464844 319.386719 34.347656 319.59375 34.117188 C 320.054688 33.65625 320.054688 32.945312 319.59375 32.484375 L 314.96875 27.859375 L 319.59375 23.234375 C 320.054688 22.777344 320.054688 22.0625 319.59375 21.601562 C 319.132812 21.144531 318.421875 21.144531 317.960938 21.601562 L 313.335938 26.226562 L 308.714844 21.601562 C 308.253906 21.144531 307.539062 21.144531 307.078125 21.601562 C 306.621094 22.0625 306.621094 22.777344 307.078125 23.234375 L 311.703125 27.859375 L 307.078125 32.484375 C 306.664062 32.945312 306.664062 33.679688 307.125 34.117188 Z M 307.125 34.117188 " fill-opacity="1" fill-rule="nonzero"/><path fill="#000000" d="M 95.703125 54.640625 C 99.382812 54.640625 102.351562 51.671875 102.351562 48.011719 C 102.351562 44.355469 99.382812 41.363281 95.703125 41.363281 C 92.046875 41.363281 89.078125 44.355469 89.078125 48.011719 C 89.078125 51.671875 92.046875 54.640625 95.703125 54.640625 Z M 95.703125 54.640625 " fill-opacity="1" fill-rule="nonzero"/><path fill="#000000" d="M 202.128906 31.839844 C 205.785156 31.839844 208.777344 28.871094 208.777344 25.214844 C 208.777344 21.558594 205.785156 18.566406 202.128906 18.566406 C 198.46875 18.566406 195.503906 21.558594 195.503906 25.214844 C 195.503906 28.871094 198.46875 31.839844 202.128906 31.839844 Z M 202.128906 31.839844 " fill-opacity="1" fill-rule="nonzero"/><path fill="#000000" d="M 290.308594 65.566406 C 293.988281 65.566406 296.957031 62.597656 296.957031 58.941406 C 296.957031 55.261719 293.988281 52.292969 290.308594 52.292969 C 286.652344 52.292969 283.683594 55.261719 283.683594 58.941406 C 283.683594 62.597656 286.652344 65.566406 290.308594 65.566406 Z M 290.308594 65.566406 " fill-opacity="1" fill-rule="nonzero"/><path fill="#000000" d="M 51.601562 105.113281 C 51.140625 104.652344 50.429688 104.652344 49.96875 105.113281 C 49.507812 105.574219 49.507812 106.285156 49.96875 106.746094 L 54.15625 110.933594 C 54.386719 111.164062 54.683594 111.277344 54.960938 111.277344 C 55.234375 111.277344 55.558594 111.164062 55.765625 110.933594 C 56.226562 110.472656 56.226562 109.761719 55.765625 109.300781 Z M 51.601562 105.113281 " fill-opacity="1" fill-rule="nonzero"/><path fill="#000000" d="M 63.679688 101.386719 C 63.910156 101.617188 64.207031 101.730469 64.484375 101.730469 C 64.761719 101.730469 65.082031 101.617188 65.289062 101.386719 C 65.75 100.925781 65.75 100.214844 65.289062 99.753906 L 61.101562 95.566406 C 60.640625 95.105469 59.929688 95.105469 59.46875 95.566406 C 59.007812 96.027344 59.007812 96.738281 59.46875 97.199219 Z M 63.679688 101.386719 " fill-opacity="1" fill-rule="nonzero"/><path fill="#000000" d="M 54.15625 95.589844 L 49.96875 99.777344 C 49.507812 100.238281 49.507812 100.949219 49.96875 101.410156 C 50.199219 101.640625 50.496094 101.753906 50.773438 101.753906 C 51.050781 101.753906 51.371094 101.640625 51.578125 101.410156 L 55.765625 97.222656 C 56.226562 96.761719 56.226562 96.050781 55.765625 95.589844 C 55.304688 95.128906 54.613281 95.128906 54.15625 95.589844 Z M 54.15625 95.589844 " fill-opacity="1" fill-rule="nonzero"/><path fill="#000000" d="M 60.320312 111.257812 C 60.621094 111.257812 60.917969 111.140625 61.125 110.910156 L 65.3125 106.722656 C 65.773438 106.265625 65.773438 105.550781 65.3125 105.089844 C 64.851562 104.628906 64.140625 104.628906 63.679688 105.089844 L 59.492188 109.277344 C 59.03125 109.738281 59.03125 110.449219 59.492188 110.910156 C 59.722656 111.140625 60.019531 111.257812 60.320312 111.257812 Z M 60.320312 111.257812 " fill-opacity="1" fill-rule="nonzero"/><path fill="#000000" d="M 216.09375 80.613281 C 216.320312 80.84375 216.621094 80.957031 216.898438 80.957031 C 217.171875 80.957031 217.496094 80.84375 217.703125 80.613281 C 218.164062 80.152344 218.164062 79.4375 217.703125 78.980469 L 213.515625 74.792969 C 213.054688 74.332031 212.34375 74.332031 211.882812 74.792969 C 211.421875 75.253906 211.421875 75.964844 211.882812 76.425781 Z M 216.09375 80.613281 " fill-opacity="1" fill-rule="nonzero"/><path fill="#000000" d="M 225.59375 71.089844 C 225.824219 71.316406 226.121094 71.433594 226.398438 71.433594 C 226.675781 71.433594 226.996094 71.316406 227.203125 71.089844 C 227.664062 70.628906 227.664062 69.914062 227.203125 69.453125 L 223.015625 65.269531 C 222.558594 64.808594 221.84375 64.808594 221.382812 65.269531 C 220.921875 65.726562 220.921875 66.441406 221.382812 66.902344 Z M 225.59375 71.089844 " fill-opacity="1" fill-rule="nonzero"/><path fill="#000000" d="M 212.710938 71.433594 C 213.007812 71.433594 213.308594 71.316406 213.515625 71.089844 L 217.703125 66.902344 C 218.164062 66.441406 218.164062 65.726562 217.703125 65.269531 C 217.242188 64.808594 216.527344 64.808594 216.070312 65.269531 L 211.882812 69.453125 C 211.421875 69.914062 211.421875 70.628906 211.882812 71.089844 C 212.136719 71.316406 212.433594 71.433594 212.710938 71.433594 Z M 212.710938 71.433594 " fill-opacity="1" fill-rule="nonzero"/><path fill="#000000" d="M 222.234375 80.957031 C 222.535156 80.957031 222.832031 80.84375 223.039062 80.613281 L 227.226562 76.425781 C 227.6875 75.964844 227.6875 75.253906 227.226562 74.792969 C 226.765625 74.332031 226.054688 74.332031 225.59375 74.792969 L 221.429688 78.980469 C 220.96875 79.4375 220.96875 80.152344 221.429688 80.613281 C 221.636719 80.84375 221.933594 80.957031 222.234375 80.957031 Z M 222.234375 80.957031 " fill-opacity="1" fill-rule="nonzero"/><path fill="#000000" d="M 110.632812 126.253906 C 113.003906 128.625 116.132812 129.960938 119.238281 129.960938 L 119.492188 129.960938 C 123.910156 129.867188 128.257812 128.648438 132.050781 126.441406 C 132.972656 125.910156 133.570312 124.992188 133.707031 123.933594 C 133.847656 122.851562 133.5 121.792969 132.71875 121.011719 L 126 114.269531 C 125.242188 113.535156 124.207031 113.1875 123.148438 113.304688 C 122.113281 113.417969 121.171875 113.992188 120.617188 114.890625 L 119.722656 116.339844 C 119.539062 116.640625 119.238281 116.824219 118.894531 116.871094 C 118.523438 116.914062 118.179688 116.800781 117.925781 116.546875 L 102.742188 101.363281 C 102.488281 101.109375 102.375 100.765625 102.421875 100.421875 C 102.46875 100.050781 102.652344 99.753906 102.949219 99.570312 L 104.375 98.671875 C 105.296875 98.121094 105.871094 97.199219 106.011719 96.140625 C 106.125 95.082031 105.757812 94.046875 105.019531 93.3125 L 98.28125 86.570312 C 97.496094 85.789062 96.4375 85.445312 95.359375 85.582031 C 94.300781 85.71875 93.378906 86.316406 92.851562 87.238281 C 90.640625 91.035156 89.421875 95.382812 89.332031 99.800781 C 89.261719 102.996094 90.597656 106.21875 93.035156 108.65625 Z M 110.632812 126.253906 " fill-opacity="1" fill-rule="nonzero"/><path fill="#000000" d="M 96.070312 145.398438 L 110.519531 171.945312 C 110.726562 172.3125 111.117188 172.542969 111.53125 172.542969 C 111.945312 172.542969 112.335938 172.3125 112.542969 171.945312 L 126.992188 145.398438 C 141.785156 139.300781 152.25 124.738281 152.25 107.734375 C 152.25 85.304688 133.984375 67.039062 111.554688 67.039062 C 89.078125 67.039062 70.8125 85.304688 70.8125 107.734375 C 70.8125 124.714844 81.277344 139.300781 96.070312 145.398438 Z M 111.554688 69.339844 C 132.71875 69.339844 149.949219 86.570312 149.949219 107.734375 C 149.949219 128.925781 132.71875 146.179688 111.554688 146.179688 C 90.367188 146.179688 73.113281 128.925781 73.113281 107.734375 C 73.113281 86.570312 90.367188 69.339844 111.554688 69.339844 Z M 111.554688 69.339844 " fill-opacity="1" fill-rule="nonzero"/><g fill="#ffc901" fill-opacity="1"><g transform="translate(83.020912, 361.929448)"><g><path d="M 35.0625 -26.71875 C 35.625 -26.71875 36.054688 -26.625 36.359375 -26.4375 C 36.671875 -26.25 36.828125 -26.007812 36.828125 -25.71875 C 36.828125 -25.582031 36.789062 -25.410156 36.71875 -25.203125 C 36.632812 -25.015625 36.519531 -24.84375 36.375 -24.6875 C 36.226562 -24.539062 36.09375 -24.4375 35.96875 -24.375 C 35.851562 -24.3125 35.769531 -24.25 35.71875 -24.1875 C 35.28125 -23.945312 34.925781 -23.679688 34.65625 -23.390625 C 34.394531 -23.097656 34.171875 -22.644531 33.984375 -22.03125 L 29.046875 -4.734375 C 28.941406 -4.390625 28.890625 -4.054688 28.890625 -3.734375 C 28.890625 -3.410156 28.9375 -3.15625 29.03125 -2.96875 C 29.125 -2.78125 29.265625 -2.539062 29.453125 -2.25 C 29.472656 -2.21875 29.546875 -2.113281 29.671875 -1.9375 C 29.796875 -1.769531 29.859375 -1.59375 29.859375 -1.40625 C 29.859375 -1.351562 29.828125 -1.21875 29.765625 -1 C 29.640625 -0.625 29.390625 -0.363281 29.015625 -0.21875 C 28.640625 -0.0703125 28.078125 0 27.328125 0 L 17.890625 0 C 17.328125 0 16.890625 -0.09375 16.578125 -0.28125 C 16.273438 -0.46875 16.125 -0.722656 16.125 -1.046875 C 16.125 -1.203125 16.164062 -1.375 16.25 -1.5625 C 16.351562 -1.78125 16.5 -1.960938 16.6875 -2.109375 C 16.875 -2.253906 17.0625 -2.378906 17.25 -2.484375 C 17.675781 -2.722656 18.023438 -2.992188 18.296875 -3.296875 C 18.566406 -3.609375 18.796875 -4.085938 18.984375 -4.734375 L 20.90625 -11.4375 L 13.796875 -11.4375 L 11.875 -4.734375 C 11.769531 -4.390625 11.71875 -4.054688 11.71875 -3.734375 C 11.71875 -3.410156 11.765625 -3.15625 11.859375 -2.96875 C 11.953125 -2.78125 12.09375 -2.539062 12.28125 -2.25 C 12.300781 -2.21875 12.367188 -2.113281 12.484375 -1.9375 C 12.609375 -1.769531 12.671875 -1.59375 12.671875 -1.40625 C 12.671875 -1.351562 12.644531 -1.21875 12.59375 -1 C 12.46875 -0.625 12.21875 -0.363281 11.84375 -0.21875 C 11.46875 -0.0703125 10.90625 0 10.15625 0 L 0.71875 0 C 0.15625 0 -0.273438 -0.09375 -0.578125 -0.28125 C -0.890625 -0.46875 -1.046875 -0.722656 -1.046875 -1.046875 C -1.046875 -1.203125 -1.003906 -1.375 -0.921875 -1.5625 C -0.816406 -1.78125 -0.671875 -1.960938 -0.484375 -2.109375 C -0.296875 -2.253906 -0.109375 -2.378906 0.078125 -2.484375 C 0.503906 -2.722656 0.851562 -2.992188 1.125 -3.296875 C 1.394531 -3.609375 1.625 -4.085938 1.8125 -4.734375 L 6.734375 -22.03125 C 6.847656 -22.375 6.90625 -22.707031 6.90625 -23.03125 C 6.90625 -23.320312 6.859375 -23.566406 6.765625 -23.765625 C 6.671875 -23.972656 6.539062 -24.207031 6.375 -24.46875 C 6.269531 -24.601562 6.175781 -24.742188 6.09375 -24.890625 C 6.019531 -25.046875 5.984375 -25.203125 5.984375 -25.359375 C 5.984375 -25.410156 6.007812 -25.546875 6.0625 -25.765625 C 6.164062 -26.109375 6.40625 -26.351562 6.78125 -26.5 C 7.15625 -26.644531 7.71875 -26.71875 8.46875 -26.71875 L 17.890625 -26.71875 C 18.453125 -26.71875 18.882812 -26.625 19.1875 -26.4375 C 19.5 -26.25 19.65625 -26.007812 19.65625 -25.71875 C 19.65625 -25.582031 19.617188 -25.410156 19.546875 -25.203125 C 19.460938 -25.015625 19.347656 -24.84375 19.203125 -24.6875 C 19.054688 -24.539062 18.921875 -24.4375 18.796875 -24.375 C 18.679688 -24.3125 18.59375 -24.25 18.53125 -24.1875 C 18.101562 -23.945312 17.753906 -23.679688 17.484375 -23.390625 C 17.222656 -23.097656 17 -22.644531 16.8125 -22.03125 L 14.921875 -15.453125 L 22.03125 -15.453125 L 23.921875 -22.03125 C 24.023438 -22.375 24.078125 -22.707031 24.078125 -23.03125 C 24.078125 -23.320312 24.03125 -23.566406 23.9375 -23.765625 C 23.84375 -23.972656 23.710938 -24.207031 23.546875 -24.46875 C 23.441406 -24.601562 23.347656 -24.742188 23.265625 -24.890625 C 23.191406 -25.046875 23.15625 -25.203125 23.15625 -25.359375 C 23.15625 -25.410156 23.179688 -25.546875 23.234375 -25.765625 C 23.335938 -26.109375 23.578125 -26.351562 23.953125 -26.5 C 24.328125 -26.644531 24.890625 -26.71875 25.640625 -26.71875 Z M 35.0625 -26.71875 "/></g></g></g><g fill="#ffc901" fill-opacity="1"><g transform="translate(116.474229, 361.929448)"><g><path d="M 13.609375 -21.421875 C 17.003906 -21.421875 19.460938 -20.878906 20.984375 -19.796875 C 22.503906 -18.710938 23.265625 -17.332031 23.265625 -15.65625 C 23.265625 -15.144531 23.210938 -14.675781 23.109375 -14.25 C 22.710938 -12.476562 21.597656 -11.210938 19.765625 -10.453125 C 17.929688 -9.691406 15.769531 -9.3125 13.28125 -9.3125 C 12.019531 -9.3125 10.84375 -9.390625 9.75 -9.546875 C 9.71875 -8.160156 10.085938 -7.1875 10.859375 -6.625 C 11.640625 -6.0625 12.726562 -5.78125 14.125 -5.78125 C 14.769531 -5.78125 15.382812 -5.851562 15.96875 -6 C 16.5625 -6.144531 17.3125 -6.363281 18.21875 -6.65625 C 18.96875 -6.925781 19.472656 -7.0625 19.734375 -7.0625 C 20.035156 -7.0625 20.1875 -6.890625 20.1875 -6.546875 C 20.207031 -5.609375 19.859375 -4.625 19.140625 -3.59375 C 18.421875 -2.5625 17.347656 -1.679688 15.921875 -0.953125 C 14.503906 -0.234375 12.796875 0.125 10.796875 0.125 C 7.828125 0.125 5.390625 -0.625 3.484375 -2.125 C 1.585938 -3.625 0.640625 -5.804688 0.640625 -8.671875 C 0.640625 -9.472656 0.75 -10.40625 0.96875 -11.46875 C 1.632812 -14.757812 3.097656 -17.238281 5.359375 -18.90625 C 7.617188 -20.582031 10.367188 -21.421875 13.609375 -21.421875 Z M 10.03125 -11.953125 C 10.132812 -11.929688 10.28125 -11.921875 10.46875 -11.921875 C 11.59375 -11.921875 12.445312 -12.441406 13.03125 -13.484375 C 13.625 -14.523438 13.910156 -15.6875 13.890625 -16.96875 C 13.859375 -17.71875 13.640625 -18.09375 13.234375 -18.09375 C 12.941406 -18.09375 12.59375 -17.859375 12.1875 -17.390625 C 11.789062 -16.921875 11.398438 -16.21875 11.015625 -15.28125 C 10.628906 -14.351562 10.300781 -13.242188 10.03125 -11.953125 Z M 10.03125 -11.953125 "/></g></g></g><g fill="#ffc901" fill-opacity="1"><g transform="translate(138.936898, 361.929448)"><g><path d="M 12.796875 -29.65625 C 14.347656 -29.65625 15.488281 -29.359375 16.21875 -28.765625 C 16.957031 -28.179688 17.328125 -27.378906 17.328125 -26.359375 C 17.328125 -25.773438 17.234375 -25.203125 17.046875 -24.640625 L 10.75 -4.171875 C 10.675781 -3.847656 10.640625 -3.566406 10.640625 -3.328125 C 10.640625 -2.984375 10.703125 -2.707031 10.828125 -2.5 C 10.960938 -2.300781 11.148438 -2.109375 11.390625 -1.921875 C 11.578125 -1.734375 11.710938 -1.578125 11.796875 -1.453125 C 11.878906 -1.335938 11.894531 -1.1875 11.84375 -1 C 11.707031 -0.65625 11.4375 -0.398438 11.03125 -0.234375 C 10.632812 -0.078125 10.019531 0 9.1875 0 L 0.046875 0 C -0.648438 0 -1.160156 -0.113281 -1.484375 -0.34375 C -1.804688 -0.570312 -1.914062 -0.875 -1.8125 -1.25 C -1.695312 -1.5625 -1.414062 -1.84375 -0.96875 -2.09375 C -0.5625 -2.300781 -0.226562 -2.550781 0.03125 -2.84375 C 0.300781 -3.144531 0.53125 -3.613281 0.71875 -4.25 L 6.828125 -24.28125 C 6.898438 -24.519531 6.9375 -24.71875 6.9375 -24.875 C 6.9375 -25.164062 6.863281 -25.40625 6.71875 -25.59375 C 6.570312 -25.78125 6.378906 -25.96875 6.140625 -26.15625 C 5.867188 -26.375 5.671875 -26.5625 5.546875 -26.71875 C 5.429688 -26.882812 5.414062 -27.097656 5.5 -27.359375 C 5.65625 -27.972656 6.492188 -28.507812 8.015625 -28.96875 C 9.546875 -29.425781 11.140625 -29.65625 12.796875 -29.65625 Z M 12.796875 -29.65625 "/></g></g></g><g fill="#ffc901" fill-opacity="1"><g transform="translate(153.617846, 361.929448)"><g><path d="M 20.984375 -21.390625 C 23.046875 -21.390625 24.664062 -20.707031 25.84375 -19.34375 C 27.019531 -17.976562 27.609375 -16.117188 27.609375 -13.765625 C 27.609375 -12.503906 27.429688 -11.179688 27.078125 -9.796875 C 26.273438 -6.472656 24.773438 -3.945312 22.578125 -2.21875 C 20.390625 -0.5 17.851562 0.359375 14.96875 0.359375 C 13.125 0.359375 11.519531 -0.0234375 10.15625 -0.796875 L 8.875 3.484375 C 8.757812 3.785156 8.703125 4.066406 8.703125 4.328125 C 8.703125 4.628906 8.769531 4.878906 8.90625 5.078125 C 9.039062 5.273438 9.210938 5.46875 9.421875 5.65625 C 9.640625 5.875 9.78125 6.046875 9.84375 6.171875 C 9.914062 6.304688 9.925781 6.46875 9.875 6.65625 C 9.757812 7.007812 9.5 7.257812 9.09375 7.40625 C 8.695312 7.550781 8.085938 7.625 7.265625 7.625 L -1.921875 7.625 C -2.617188 7.625 -3.117188 7.507812 -3.421875 7.28125 C -3.734375 7.050781 -3.820312 6.765625 -3.6875 6.421875 C -3.632812 6.203125 -3.539062 6.023438 -3.40625 5.890625 C -3.269531 5.765625 -3.082031 5.644531 -2.84375 5.53125 C -2.445312 5.269531 -2.128906 5 -1.890625 4.71875 C -1.648438 4.4375 -1.4375 3.988281 -1.25 3.375 L 4.609375 -15.84375 C 4.691406 -16.082031 4.734375 -16.285156 4.734375 -16.453125 C 4.734375 -16.742188 4.664062 -16.976562 4.53125 -17.15625 C 4.394531 -17.332031 4.195312 -17.507812 3.9375 -17.6875 C 3.664062 -17.90625 3.472656 -18.09375 3.359375 -18.25 C 3.253906 -18.414062 3.242188 -18.632812 3.328125 -18.90625 C 3.492188 -19.519531 4.335938 -20.054688 5.859375 -20.515625 C 7.378906 -20.984375 8.972656 -21.21875 10.640625 -21.21875 C 11.816406 -21.21875 12.785156 -20.921875 13.546875 -20.328125 C 14.304688 -19.742188 14.738281 -18.929688 14.84375 -17.890625 C 16.664062 -20.222656 18.710938 -21.390625 20.984375 -21.390625 Z M 16.328125 -9.46875 C 16.972656 -11.851562 17.296875 -13.5 17.296875 -14.40625 C 17.296875 -14.96875 17.207031 -15.332031 17.03125 -15.5 C 16.851562 -15.675781 16.609375 -15.765625 16.296875 -15.765625 C 16.046875 -15.765625 15.734375 -15.648438 15.359375 -15.421875 C 14.992188 -15.203125 14.625 -14.820312 14.25 -14.28125 L 11.078125 -3.765625 C 11.398438 -3.453125 11.785156 -3.296875 12.234375 -3.296875 C 12.960938 -3.296875 13.648438 -3.703125 14.296875 -4.515625 C 14.953125 -5.328125 15.628906 -6.976562 16.328125 -9.46875 Z M 16.328125 -9.46875 "/></g></g></g><g fill="#ffc901" fill-opacity="1"><g transform="translate(181.33517, 361.929448)"><g><path d="M 19.21875 -26.71875 C 23.226562 -26.71875 26.25 -25.945312 28.28125 -24.40625 C 30.320312 -22.875 31.34375 -20.625 31.34375 -17.65625 C 31.34375 -16.1875 31.070312 -14.488281 30.53125 -12.5625 C 29.644531 -9.457031 28.453125 -6.992188 26.953125 -5.171875 C 25.460938 -3.359375 23.492188 -2.035156 21.046875 -1.203125 C 18.597656 -0.367188 15.460938 0.03125 11.640625 0 L 0.71875 -0.046875 C 0.15625 -0.046875 -0.273438 -0.140625 -0.578125 -0.328125 C -0.890625 -0.515625 -1.046875 -0.765625 -1.046875 -1.078125 C -1.046875 -1.242188 -1.003906 -1.421875 -0.921875 -1.609375 C -0.835938 -1.847656 -0.722656 -2.019531 -0.578125 -2.125 C -0.429688 -2.226562 -0.210938 -2.375 0.078125 -2.5625 C 0.503906 -2.800781 0.84375 -3.066406 1.09375 -3.359375 C 1.351562 -3.660156 1.578125 -4.132812 1.765625 -4.78125 L 6.65625 -22.03125 C 6.769531 -22.375 6.828125 -22.707031 6.828125 -23.03125 C 6.828125 -23.320312 6.78125 -23.566406 6.6875 -23.765625 C 6.59375 -23.972656 6.460938 -24.207031 6.296875 -24.46875 C 6.054688 -24.820312 5.9375 -25.101562 5.9375 -25.3125 C 5.9375 -25.394531 5.960938 -25.546875 6.015625 -25.765625 C 6.117188 -26.109375 6.351562 -26.351562 6.71875 -26.5 C 7.082031 -26.644531 7.640625 -26.71875 8.390625 -26.71875 Z M 20.265625 -13.4375 C 20.960938 -15.957031 21.3125 -17.9375 21.3125 -19.375 C 21.3125 -20.789062 21.015625 -21.765625 20.421875 -22.296875 C 19.835938 -22.835938 18.992188 -23.109375 17.890625 -23.109375 L 17.015625 -23.109375 L 11.59375 -3.609375 L 12.5625 -3.609375 C 13.789062 -3.609375 14.828125 -3.867188 15.671875 -4.390625 C 16.515625 -4.910156 17.296875 -5.875 18.015625 -7.28125 C 18.734375 -8.6875 19.484375 -10.738281 20.265625 -13.4375 Z M 20.265625 -13.4375 "/></g></g></g><g fill="#ffc901" fill-opacity="1"><g transform="translate(212.301546, 361.929448)"><g><path d="M 13.609375 -21.421875 C 17.003906 -21.421875 19.460938 -20.878906 20.984375 -19.796875 C 22.503906 -18.710938 23.265625 -17.332031 23.265625 -15.65625 C 23.265625 -15.144531 23.210938 -14.675781 23.109375 -14.25 C 22.710938 -12.476562 21.597656 -11.210938 19.765625 -10.453125 C 17.929688 -9.691406 15.769531 -9.3125 13.28125 -9.3125 C 12.019531 -9.3125 10.84375 -9.390625 9.75 -9.546875 C 9.71875 -8.160156 10.085938 -7.1875 10.859375 -6.625 C 11.640625 -6.0625 12.726562 -5.78125 14.125 -5.78125 C 14.769531 -5.78125 15.382812 -5.851562 15.96875 -6 C 16.5625 -6.144531 17.3125 -6.363281 18.21875 -6.65625 C 18.96875 -6.925781 19.472656 -7.0625 19.734375 -7.0625 C 20.035156 -7.0625 20.1875 -6.890625 20.1875 -6.546875 C 20.207031 -5.609375 19.859375 -4.625 19.140625 -3.59375 C 18.421875 -2.5625 17.347656 -1.679688 15.921875 -0.953125 C 14.503906 -0.234375 12.796875 0.125 10.796875 0.125 C 7.828125 0.125 5.390625 -0.625 3.484375 -2.125 C 1.585938 -3.625 0.640625 -5.804688 0.640625 -8.671875 C 0.640625 -9.472656 0.75 -10.40625 0.96875 -11.46875 C 1.632812 -14.757812 3.097656 -17.238281 5.359375 -18.90625 C 7.617188 -20.582031 10.367188 -21.421875 13.609375 -21.421875 Z M 10.03125 -11.953125 C 10.132812 -11.929688 10.28125 -11.921875 10.46875 -11.921875 C 11.59375 -11.921875 12.445312 -12.441406 13.03125 -13.484375 C 13.625 -14.523438 13.910156 -15.6875 13.890625 -16.96875 C 13.859375 -17.71875 13.640625 -18.09375 13.234375 -18.09375 C 12.941406 -18.09375 12.59375 -17.859375 12.1875 -17.390625 C 11.789062 -16.921875 11.398438 -16.21875 11.015625 -15.28125 C 10.628906 -14.351562 10.300781 -13.242188 10.03125 -11.953125 Z M 10.03125 -11.953125 "/></g></g></g><g fill="#ffc901" fill-opacity="1"><g transform="translate(234.764215, 361.929448)"><g><path d="M 12.796875 -29.65625 C 14.347656 -29.65625 15.488281 -29.359375 16.21875 -28.765625 C 16.957031 -28.179688 17.328125 -27.378906 17.328125 -26.359375 C 17.328125 -25.773438 17.234375 -25.203125 17.046875 -24.640625 L 10.75 -4.171875 C 10.675781 -3.847656 10.640625 -3.566406 10.640625 -3.328125 C 10.640625 -2.984375 10.703125 -2.707031 10.828125 -2.5 C 10.960938 -2.300781 11.148438 -2.109375 11.390625 -1.921875 C 11.578125 -1.734375 11.710938 -1.578125 11.796875 -1.453125 C 11.878906 -1.335938 11.894531 -1.1875 11.84375 -1 C 11.707031 -0.65625 11.4375 -0.398438 11.03125 -0.234375 C 10.632812 -0.078125 10.019531 0 9.1875 0 L 0.046875 0 C -0.648438 0 -1.160156 -0.113281 -1.484375 -0.34375 C -1.804688 -0.570312 -1.914062 -0.875 -1.8125 -1.25 C -1.695312 -1.5625 -1.414062 -1.84375 -0.96875 -2.09375 C -0.5625 -2.300781 -0.226562 -2.550781 0.03125 -2.84375 C 0.300781 -3.144531 0.53125 -3.613281 0.71875 -4.25 L 6.828125 -24.28125 C 6.898438 -24.519531 6.9375 -24.71875 6.9375 -24.875 C 6.9375 -25.164062 6.863281 -25.40625 6.71875 -25.59375 C 6.570312 -25.78125 6.378906 -25.96875 6.140625 -26.15625 C 5.867188 -26.375 5.671875 -26.5625 5.546875 -26.71875 C 5.429688 -26.882812 5.414062 -27.097656 5.5 -27.359375 C 5.65625 -27.972656 6.492188 -28.507812 8.015625 -28.96875 C 9.546875 -29.425781 11.140625 -29.65625 12.796875 -29.65625 Z M 12.796875 -29.65625 "/></g></g></g><g fill="#ffc901" fill-opacity="1"><g transform="translate(249.445163, 361.929448)"><g><path d="M 14.328125 -21.21875 C 17.398438 -21.21875 19.859375 -20.648438 21.703125 -19.515625 C 23.546875 -18.378906 24.46875 -16.648438 24.46875 -14.328125 C 24.46875 -13.441406 24.3125 -12.4375 24 -11.3125 L 22.34375 -5.78125 C 22.320312 -5.675781 22.3125 -5.539062 22.3125 -5.375 C 22.3125 -4.945312 22.484375 -4.734375 22.828125 -4.734375 C 23.148438 -4.734375 23.425781 -4.875 23.65625 -5.15625 C 23.882812 -5.4375 24.035156 -5.578125 24.109375 -5.578125 C 24.242188 -5.578125 24.359375 -5.484375 24.453125 -5.296875 C 24.546875 -5.109375 24.59375 -4.894531 24.59375 -4.65625 C 24.625 -3.9375 24.347656 -3.203125 23.765625 -2.453125 C 23.191406 -1.703125 22.421875 -1.082031 21.453125 -0.59375 C 20.492188 -0.113281 19.441406 0.125 18.296875 0.125 C 16.898438 0.125 15.707031 -0.128906 14.71875 -0.640625 C 13.726562 -1.148438 13.046875 -1.898438 12.671875 -2.890625 C 11.867188 -1.921875 10.921875 -1.175781 9.828125 -0.65625 C 8.734375 -0.132812 7.554688 0.125 6.296875 0.125 C 4.878906 0.125 3.6875 -0.148438 2.71875 -0.703125 C 1.757812 -1.253906 1.046875 -1.960938 0.578125 -2.828125 C 0.109375 -3.703125 -0.125 -4.617188 -0.125 -5.578125 C -0.125 -6.003906 -0.0820312 -6.421875 0 -6.828125 C 0.425781 -8.671875 1.351562 -10.0625 2.78125 -11 C 4.21875 -11.9375 5.925781 -12.40625 7.90625 -12.40625 C 10.125 -12.40625 12.300781 -12.054688 14.4375 -11.359375 L 15.453125 -14 C 15.796875 -15.125 15.96875 -15.992188 15.96875 -16.609375 C 15.9375 -17.253906 15.71875 -17.734375 15.3125 -18.046875 C 14.914062 -18.367188 14.304688 -18.53125 13.484375 -18.53125 C 13.640625 -18.101562 13.71875 -17.664062 13.71875 -17.21875 C 13.71875 -16.226562 13.34375 -15.367188 12.59375 -14.640625 C 11.84375 -13.921875 10.773438 -13.5625 9.390625 -13.5625 C 8.078125 -13.5625 7.050781 -13.847656 6.3125 -14.421875 C 5.582031 -14.992188 5.21875 -15.710938 5.21875 -16.578125 C 5.21875 -17.910156 5.960938 -19.015625 7.453125 -19.890625 C 8.953125 -20.773438 11.242188 -21.21875 14.328125 -21.21875 Z M 12.078125 -9.0625 C 11.328125 -9.0625 10.71875 -8.773438 10.25 -8.203125 C 9.78125 -7.628906 9.546875 -7.007812 9.546875 -6.34375 C 9.546875 -5.914062 9.644531 -5.566406 9.84375 -5.296875 C 10.050781 -5.023438 10.34375 -4.890625 10.71875 -4.890625 C 11.0625 -4.890625 11.441406 -5.03125 11.859375 -5.3125 C 12.273438 -5.59375 12.578125 -6.015625 12.765625 -6.578125 L 13.609375 -8.953125 C 13.148438 -9.023438 12.640625 -9.0625 12.078125 -9.0625 Z M 12.078125 -9.0625 "/></g></g></g><g fill="#ffc901" fill-opacity="1"><g transform="translate(275.678337, 361.929448)"><g><path d="M 13.203125 -21.59375 C 15.421875 -21.59375 17.335938 -21.390625 18.953125 -20.984375 C 20.578125 -20.585938 21.820312 -20.023438 22.6875 -19.296875 C 23.5625 -18.578125 24 -17.765625 24 -16.859375 C 24 -15.921875 23.628906 -15.15625 22.890625 -14.5625 C 22.148438 -13.976562 21.128906 -13.6875 19.828125 -13.6875 C 18.484375 -13.6875 17.347656 -14.019531 16.421875 -14.6875 C 15.503906 -15.351562 15.046875 -16.195312 15.046875 -17.21875 C 15.046875 -17.5625 15.097656 -17.894531 15.203125 -18.21875 C 14.722656 -18.351562 14.296875 -18.421875 13.921875 -18.421875 C 13.253906 -18.421875 12.695312 -18.257812 12.25 -17.9375 C 11.8125 -17.613281 11.609375 -17.160156 11.640625 -16.578125 C 11.640625 -15.878906 11.984375 -15.285156 12.671875 -14.796875 C 13.367188 -14.316406 14.492188 -13.71875 16.046875 -13 C 17.390625 -12.414062 18.492188 -11.875 19.359375 -11.375 C 20.234375 -10.882812 20.96875 -10.265625 21.5625 -9.515625 C 22.164062 -8.765625 22.46875 -7.878906 22.46875 -6.859375 C 22.46875 -6.648438 22.414062 -6.25 22.3125 -5.65625 C 21.882812 -3.863281 20.691406 -2.445312 18.734375 -1.40625 C 16.785156 -0.363281 14.21875 0.15625 11.03125 0.15625 C 7.445312 0.15625 4.601562 -0.320312 2.5 -1.28125 C 0.40625 -2.25 -0.640625 -3.570312 -0.640625 -5.25 C -0.640625 -6.40625 -0.296875 -7.273438 0.390625 -7.859375 C 1.085938 -8.453125 2.015625 -8.75 3.171875 -8.75 C 4.503906 -8.75 5.644531 -8.332031 6.59375 -7.5 C 7.550781 -6.675781 8.03125 -5.617188 8.03125 -4.328125 C 8.03125 -3.984375 7.988281 -3.625 7.90625 -3.25 C 8.550781 -3.09375 9.164062 -3.015625 9.75 -3.015625 C 10.445312 -3.015625 11.019531 -3.203125 11.46875 -3.578125 C 11.925781 -3.953125 12.15625 -4.472656 12.15625 -5.140625 C 12.132812 -5.753906 11.828125 -6.28125 11.234375 -6.71875 C 10.648438 -7.164062 9.710938 -7.695312 8.421875 -8.3125 C 7.222656 -8.875 6.234375 -9.398438 5.453125 -9.890625 C 4.679688 -10.390625 4.019531 -11.007812 3.46875 -11.75 C 2.914062 -12.5 2.640625 -13.382812 2.640625 -14.40625 C 2.640625 -16.59375 3.554688 -18.335938 5.390625 -19.640625 C 7.222656 -20.941406 9.828125 -21.59375 13.203125 -21.59375 Z M 13.203125 -21.59375 "/></g></g></g></svg>