<svg xmlns="http://www.w3.org/2000/svg" xmlns:xlink="http://www.w3.org/1999/xlink" width="500" zoomAndPan="magnify" viewBox="0 0 375 374.999991" height="500" preserveAspectRatio="xMidYMid meet" version="1.0"><defs><g/></defs><g fill="#ffc901" fill-opacity="1"><g transform="translate(4.922293, 182.764991)"><g><path d="M 59.140625 -45.0625 C 60.085938 -45.0625 60.820312 -44.90625 61.34375 -44.59375 C 61.863281 -44.28125 62.125 -43.875 62.125 -43.375 C 62.125 -43.15625 62.054688 -42.863281 61.921875 -42.5 C 61.785156 -42.1875 61.59375 -41.90625 61.34375 -41.65625 C 61.09375 -41.40625 60.863281 -41.222656 60.65625 -41.109375 C 60.457031 -40.992188 60.316406 -40.894531 60.234375 -40.8125 C 59.503906 -40.40625 58.914062 -39.953125 58.46875 -39.453125 C 58.019531 -38.953125 57.632812 -38.1875 57.3125 -37.15625 L 49 -7.984375 C 48.8125 -7.398438 48.71875 -6.835938 48.71875 -6.296875 C 48.71875 -5.753906 48.796875 -5.320312 48.953125 -5 C 49.117188 -4.6875 49.359375 -4.285156 49.671875 -3.796875 C 49.710938 -3.742188 49.832031 -3.570312 50.03125 -3.28125 C 50.238281 -2.988281 50.34375 -2.6875 50.34375 -2.375 C 50.34375 -2.28125 50.300781 -2.050781 50.21875 -1.6875 C 49.988281 -1.0625 49.554688 -0.625 48.921875 -0.375 C 48.296875 -0.125 47.347656 0 46.078125 0 L 30.1875 0 C 29.238281 0 28.503906 -0.15625 27.984375 -0.46875 C 27.460938 -0.789062 27.203125 -1.222656 27.203125 -1.765625 C 27.203125 -2.035156 27.269531 -2.328125 27.40625 -2.640625 C 27.582031 -3.003906 27.828125 -3.304688 28.140625 -3.546875 C 28.460938 -3.796875 28.78125 -4.015625 29.09375 -4.203125 C 29.820312 -4.609375 30.410156 -5.066406 30.859375 -5.578125 C 31.304688 -6.097656 31.691406 -6.898438 32.015625 -7.984375 L 35.25 -19.28125 L 23.28125 -19.28125 L 20.03125 -7.984375 C 19.851562 -7.398438 19.765625 -6.835938 19.765625 -6.296875 C 19.765625 -5.753906 19.84375 -5.320312 20 -5 C 20.15625 -4.6875 20.390625 -4.285156 20.703125 -3.796875 C 20.753906 -3.742188 20.878906 -3.570312 21.078125 -3.28125 C 21.285156 -2.988281 21.390625 -2.6875 21.390625 -2.375 C 21.390625 -2.28125 21.34375 -2.050781 21.25 -1.6875 C 21.019531 -1.0625 20.585938 -0.625 19.953125 -0.375 C 19.328125 -0.125 18.382812 0 17.125 0 L 1.21875 0 C 0.269531 0 -0.460938 -0.15625 -0.984375 -0.46875 C -1.503906 -0.789062 -1.765625 -1.222656 -1.765625 -1.765625 C -1.765625 -2.035156 -1.695312 -2.328125 -1.5625 -2.640625 C -1.375 -3.003906 -1.125 -3.304688 -0.8125 -3.546875 C -0.5 -3.796875 -0.179688 -4.015625 0.140625 -4.203125 C 0.859375 -4.609375 1.441406 -5.066406 1.890625 -5.578125 C 2.347656 -6.097656 2.734375 -6.898438 3.046875 -7.984375 L 11.375 -37.15625 C 11.550781 -37.738281 11.640625 -38.300781 11.640625 -38.84375 C 11.640625 -39.34375 11.5625 -39.757812 11.40625 -40.09375 C 11.25 -40.4375 11.035156 -40.832031 10.765625 -41.28125 C 10.578125 -41.507812 10.414062 -41.742188 10.28125 -41.984375 C 10.144531 -42.234375 10.078125 -42.492188 10.078125 -42.765625 C 10.078125 -42.859375 10.125 -43.082031 10.21875 -43.4375 C 10.394531 -44.03125 10.800781 -44.445312 11.4375 -44.6875 C 12.070312 -44.9375 13.019531 -45.0625 14.28125 -45.0625 L 30.1875 -45.0625 C 31.132812 -45.0625 31.863281 -44.90625 32.375 -44.59375 C 32.894531 -44.28125 33.15625 -43.875 33.15625 -43.375 C 33.15625 -43.15625 33.085938 -42.863281 32.953125 -42.5 C 32.816406 -42.1875 32.625 -41.90625 32.375 -41.65625 C 32.132812 -41.40625 31.910156 -41.222656 31.703125 -41.109375 C 31.503906 -40.992188 31.359375 -40.894531 31.265625 -40.8125 C 30.546875 -40.40625 29.957031 -39.953125 29.5 -39.453125 C 29.050781 -38.953125 28.671875 -38.1875 28.359375 -37.15625 L 25.171875 -26.046875 L 37.15625 -26.046875 L 40.328125 -37.15625 C 40.515625 -37.738281 40.609375 -38.300781 40.609375 -38.84375 C 40.609375 -39.34375 40.523438 -39.757812 40.359375 -40.09375 C 40.203125 -40.4375 39.988281 -40.832031 39.71875 -41.28125 C 39.539062 -41.507812 39.382812 -41.742188 39.25 -41.984375 C 39.113281 -42.234375 39.046875 -42.492188 39.046875 -42.765625 C 39.046875 -42.859375 39.09375 -43.082031 39.1875 -43.4375 C 39.363281 -44.03125 39.765625 -44.445312 40.390625 -44.6875 C 41.023438 -44.9375 41.976562 -45.0625 43.25 -45.0625 Z M 59.140625 -45.0625 "/></g></g></g><g fill="#ffc901" fill-opacity="1"><g transform="translate(61.35946, 182.764991)"><g><path d="M 22.9375 -36.140625 C 28.664062 -36.140625 32.816406 -35.222656 35.390625 -33.390625 C 37.960938 -31.566406 39.25 -29.234375 39.25 -26.390625 C 39.25 -25.535156 39.160156 -24.75 38.984375 -24.03125 C 38.304688 -21.050781 36.421875 -18.914062 33.328125 -17.625 C 30.234375 -16.34375 26.59375 -15.703125 22.40625 -15.703125 C 20.28125 -15.703125 18.289062 -15.835938 16.4375 -16.109375 C 16.394531 -13.765625 17.023438 -12.117188 18.328125 -11.171875 C 19.640625 -10.222656 21.472656 -9.75 23.828125 -9.75 C 24.898438 -9.75 25.929688 -9.867188 26.921875 -10.109375 C 27.921875 -10.359375 29.1875 -10.734375 30.71875 -11.234375 C 31.988281 -11.679688 32.847656 -11.90625 33.296875 -11.90625 C 33.785156 -11.90625 34.03125 -11.613281 34.03125 -11.03125 C 34.082031 -9.445312 33.5 -7.785156 32.28125 -6.046875 C 31.0625 -4.316406 29.253906 -2.84375 26.859375 -1.625 C 24.472656 -0.40625 21.585938 0.203125 18.203125 0.203125 C 13.191406 0.203125 9.082031 -1.054688 5.875 -3.578125 C 2.675781 -6.109375 1.078125 -9.785156 1.078125 -14.609375 C 1.078125 -15.960938 1.257812 -17.546875 1.625 -19.359375 C 2.75 -24.898438 5.21875 -29.082031 9.03125 -31.90625 C 12.84375 -34.726562 17.476562 -36.140625 22.9375 -36.140625 Z M 16.921875 -20.171875 C 17.097656 -20.117188 17.34375 -20.09375 17.65625 -20.09375 C 19.550781 -20.09375 20.992188 -20.972656 21.984375 -22.734375 C 22.984375 -24.492188 23.460938 -26.457031 23.421875 -28.625 C 23.367188 -29.882812 23.003906 -30.515625 22.328125 -30.515625 C 21.835938 -30.515625 21.253906 -30.117188 20.578125 -29.328125 C 19.898438 -28.546875 19.234375 -27.363281 18.578125 -25.78125 C 17.921875 -24.207031 17.367188 -22.335938 16.921875 -20.171875 Z M 16.921875 -20.171875 "/></g></g></g><g fill="#ffc901" fill-opacity="1"><g transform="translate(99.254927, 182.764991)"><g><path d="M 21.59375 -50.015625 C 24.207031 -50.015625 26.132812 -49.515625 27.375 -48.515625 C 28.613281 -47.523438 29.234375 -46.171875 29.234375 -44.453125 C 29.234375 -43.460938 29.078125 -42.492188 28.765625 -41.546875 L 18.140625 -7.03125 C 18.003906 -6.488281 17.9375 -6.015625 17.9375 -5.609375 C 17.9375 -5.023438 18.046875 -4.5625 18.265625 -4.21875 C 18.492188 -3.882812 18.8125 -3.5625 19.21875 -3.25 C 19.53125 -2.9375 19.753906 -2.675781 19.890625 -2.46875 C 20.023438 -2.269531 20.050781 -2.007812 19.96875 -1.6875 C 19.738281 -1.101562 19.285156 -0.675781 18.609375 -0.40625 C 17.929688 -0.132812 16.894531 0 15.5 0 L 0.0625 0 C -1.101562 0 -1.957031 -0.191406 -2.5 -0.578125 C -3.039062 -0.960938 -3.222656 -1.46875 -3.046875 -2.09375 C -2.867188 -2.632812 -2.394531 -3.109375 -1.625 -3.515625 C -0.945312 -3.878906 -0.382812 -4.304688 0.0625 -4.796875 C 0.519531 -5.296875 0.90625 -6.085938 1.21875 -7.171875 L 11.5 -40.9375 C 11.632812 -41.34375 11.703125 -41.679688 11.703125 -41.953125 C 11.703125 -42.453125 11.578125 -42.859375 11.328125 -43.171875 C 11.085938 -43.484375 10.765625 -43.800781 10.359375 -44.125 C 9.898438 -44.476562 9.566406 -44.789062 9.359375 -45.0625 C 9.160156 -45.332031 9.128906 -45.695312 9.265625 -46.15625 C 9.535156 -47.1875 10.957031 -48.085938 13.53125 -48.859375 C 16.101562 -49.628906 18.789062 -50.015625 21.59375 -50.015625 Z M 21.59375 -50.015625 "/></g></g></g><g fill="#ffc901" fill-opacity="1"><g transform="translate(124.022321, 182.764991)"><g><path d="M 35.390625 -36.0625 C 38.867188 -36.0625 41.597656 -34.910156 43.578125 -32.609375 C 45.566406 -30.316406 46.5625 -27.1875 46.5625 -23.21875 C 46.5625 -21.09375 46.265625 -18.859375 45.671875 -16.515625 C 44.316406 -10.921875 41.789062 -6.664062 38.09375 -3.75 C 34.394531 -0.84375 30.109375 0.609375 25.234375 0.609375 C 22.128906 0.609375 19.425781 -0.046875 17.125 -1.359375 L 14.953125 5.890625 C 14.773438 6.378906 14.6875 6.851562 14.6875 7.3125 C 14.6875 7.800781 14.796875 8.210938 15.015625 8.546875 C 15.242188 8.890625 15.539062 9.222656 15.90625 9.546875 C 16.257812 9.898438 16.492188 10.191406 16.609375 10.421875 C 16.722656 10.648438 16.734375 10.921875 16.640625 11.234375 C 16.460938 11.816406 16.035156 12.234375 15.359375 12.484375 C 14.679688 12.734375 13.644531 12.859375 12.25 12.859375 L -3.25 12.859375 C -4.414062 12.859375 -5.257812 12.664062 -5.78125 12.28125 C -6.300781 11.894531 -6.445312 11.410156 -6.21875 10.828125 C -6.132812 10.460938 -5.976562 10.164062 -5.75 9.9375 C -5.519531 9.71875 -5.207031 9.519531 -4.8125 9.34375 C -4.132812 8.882812 -3.59375 8.414062 -3.1875 7.9375 C -2.78125 7.46875 -2.414062 6.71875 -2.09375 5.6875 L 7.78125 -26.734375 C 7.914062 -27.140625 7.984375 -27.476562 7.984375 -27.75 C 7.984375 -28.238281 7.867188 -28.628906 7.640625 -28.921875 C 7.421875 -29.222656 7.082031 -29.53125 6.625 -29.84375 C 6.175781 -30.207031 5.859375 -30.523438 5.671875 -30.796875 C 5.492188 -31.066406 5.472656 -31.425781 5.609375 -31.875 C 5.878906 -32.914062 7.300781 -33.828125 9.875 -34.609375 C 12.445312 -35.398438 15.132812 -35.796875 17.9375 -35.796875 C 19.914062 -35.796875 21.546875 -35.300781 22.828125 -34.3125 C 24.117188 -33.320312 24.851562 -31.945312 25.03125 -30.1875 C 28.101562 -34.101562 31.554688 -36.0625 35.390625 -36.0625 Z M 27.546875 -15.96875 C 28.628906 -19.988281 29.171875 -22.765625 29.171875 -24.296875 C 29.171875 -25.242188 29.019531 -25.863281 28.71875 -26.15625 C 28.425781 -26.445312 28.007812 -26.59375 27.46875 -26.59375 C 27.0625 -26.59375 26.539062 -26.398438 25.90625 -26.015625 C 25.28125 -25.628906 24.65625 -24.988281 24.03125 -24.09375 L 18.671875 -6.359375 C 19.210938 -5.816406 19.867188 -5.546875 20.640625 -5.546875 C 21.859375 -5.546875 23.019531 -6.234375 24.125 -7.609375 C 25.226562 -8.984375 26.367188 -11.769531 27.546875 -15.96875 Z M 27.546875 -15.96875 "/></g></g></g><g fill="#ffc901" fill-opacity="1"><g transform="translate(170.782605, 182.764991)"><g><path d="M 32.421875 -45.0625 C 39.179688 -45.0625 44.273438 -43.765625 47.703125 -41.171875 C 51.140625 -38.578125 52.859375 -34.78125 52.859375 -29.78125 C 52.859375 -27.289062 52.40625 -24.425781 51.5 -21.1875 C 50.007812 -15.945312 48 -11.789062 45.46875 -8.71875 C 42.945312 -5.65625 39.617188 -3.425781 35.484375 -2.03125 C 31.359375 -0.632812 26.070312 0.0390625 19.625 0 L 1.21875 -0.0625 C 0.269531 -0.0625 -0.460938 -0.21875 -0.984375 -0.53125 C -1.503906 -0.851562 -1.765625 -1.285156 -1.765625 -1.828125 C -1.765625 -2.097656 -1.695312 -2.390625 -1.5625 -2.703125 C -1.425781 -3.109375 -1.234375 -3.398438 -0.984375 -3.578125 C -0.734375 -3.765625 -0.359375 -4.015625 0.140625 -4.328125 C 0.859375 -4.734375 1.429688 -5.179688 1.859375 -5.671875 C 2.285156 -6.171875 2.660156 -6.960938 2.984375 -8.046875 L 11.234375 -37.15625 C 11.410156 -37.738281 11.5 -38.300781 11.5 -38.84375 C 11.5 -39.34375 11.421875 -39.757812 11.265625 -40.09375 C 11.109375 -40.4375 10.894531 -40.832031 10.625 -41.28125 C 10.21875 -41.863281 10.015625 -42.335938 10.015625 -42.703125 C 10.015625 -42.835938 10.0625 -43.082031 10.15625 -43.4375 C 10.332031 -44.03125 10.722656 -44.445312 11.328125 -44.6875 C 11.941406 -44.9375 12.878906 -45.0625 14.140625 -45.0625 Z M 34.171875 -22.671875 C 35.347656 -26.910156 35.9375 -30.25 35.9375 -32.6875 C 35.9375 -35.070312 35.4375 -36.71875 34.4375 -37.625 C 33.445312 -38.53125 32.03125 -38.984375 30.1875 -38.984375 L 28.6875 -38.984375 L 19.5625 -6.09375 L 21.1875 -6.09375 C 23.257812 -6.09375 25.003906 -6.53125 26.421875 -7.40625 C 27.847656 -8.289062 29.171875 -9.914062 30.390625 -12.28125 C 31.609375 -14.644531 32.867188 -18.109375 34.171875 -22.671875 Z M 34.171875 -22.671875 "/></g></g></g><g fill="#ffc901" fill-opacity="1"><g transform="translate(223.024207, 182.764991)"><g><path d="M 22.9375 -36.140625 C 28.664062 -36.140625 32.816406 -35.222656 35.390625 -33.390625 C 37.960938 -31.566406 39.25 -29.234375 39.25 -26.390625 C 39.25 -25.535156 39.160156 -24.75 38.984375 -24.03125 C 38.304688 -21.050781 36.421875 -18.914062 33.328125 -17.625 C 30.234375 -16.34375 26.59375 -15.703125 22.40625 -15.703125 C 20.28125 -15.703125 18.289062 -15.835938 16.4375 -16.109375 C 16.394531 -13.765625 17.023438 -12.117188 18.328125 -11.171875 C 19.640625 -10.222656 21.472656 -9.75 23.828125 -9.75 C 24.898438 -9.75 25.929688 -9.867188 26.921875 -10.109375 C 27.921875 -10.359375 29.1875 -10.734375 30.71875 -11.234375 C 31.988281 -11.679688 32.847656 -11.90625 33.296875 -11.90625 C 33.785156 -11.90625 34.03125 -11.613281 34.03125 -11.03125 C 34.082031 -9.445312 33.5 -7.785156 32.28125 -6.046875 C 31.0625 -4.316406 29.253906 -2.84375 26.859375 -1.625 C 24.472656 -0.40625 21.585938 0.203125 18.203125 0.203125 C 13.191406 0.203125 9.082031 -1.054688 5.875 -3.578125 C 2.675781 -6.109375 1.078125 -9.785156 1.078125 -14.609375 C 1.078125 -15.960938 1.257812 -17.546875 1.625 -19.359375 C 2.75 -24.898438 5.21875 -29.082031 9.03125 -31.90625 C 12.84375 -34.726562 17.476562 -36.140625 22.9375 -36.140625 Z M 16.921875 -20.171875 C 17.097656 -20.117188 17.34375 -20.09375 17.65625 -20.09375 C 19.550781 -20.09375 20.992188 -20.972656 21.984375 -22.734375 C 22.984375 -24.492188 23.460938 -26.457031 23.421875 -28.625 C 23.367188 -29.882812 23.003906 -30.515625 22.328125 -30.515625 C 21.835938 -30.515625 21.253906 -30.117188 20.578125 -29.328125 C 19.898438 -28.546875 19.234375 -27.363281 18.578125 -25.78125 C 17.921875 -24.207031 17.367188 -22.335938 16.921875 -20.171875 Z M 16.921875 -20.171875 "/></g></g></g><g fill="#ffc901" fill-opacity="1"><g transform="translate(260.919674, 182.764991)"><g><path d="M 21.59375 -50.015625 C 24.207031 -50.015625 26.132812 -49.515625 27.375 -48.515625 C 28.613281 -47.523438 29.234375 -46.171875 29.234375 -44.453125 C 29.234375 -43.460938 29.078125 -42.492188 28.765625 -41.546875 L 18.140625 -7.03125 C 18.003906 -6.488281 17.9375 -6.015625 17.9375 -5.609375 C 17.9375 -5.023438 18.046875 -4.5625 18.265625 -4.21875 C 18.492188 -3.882812 18.8125 -3.5625 19.21875 -3.25 C 19.53125 -2.9375 19.753906 -2.675781 19.890625 -2.46875 C 20.023438 -2.269531 20.050781 -2.007812 19.96875 -1.6875 C 19.738281 -1.101562 19.285156 -0.675781 18.609375 -0.40625 C 17.929688 -0.132812 16.894531 0 15.5 0 L 0.0625 0 C -1.101562 0 -1.957031 -0.191406 -2.5 -0.578125 C -3.039062 -0.960938 -3.222656 -1.46875 -3.046875 -2.09375 C -2.867188 -2.632812 -2.394531 -3.109375 -1.625 -3.515625 C -0.945312 -3.878906 -0.382812 -4.304688 0.0625 -4.796875 C 0.519531 -5.296875 0.90625 -6.085938 1.21875 -7.171875 L 11.5 -40.9375 C 11.632812 -41.34375 11.703125 -41.679688 11.703125 -41.953125 C 11.703125 -42.453125 11.578125 -42.859375 11.328125 -43.171875 C 11.085938 -43.484375 10.765625 -43.800781 10.359375 -44.125 C 9.898438 -44.476562 9.566406 -44.789062 9.359375 -45.0625 C 9.160156 -45.332031 9.128906 -45.695312 9.265625 -46.15625 C 9.535156 -47.1875 10.957031 -48.085938 13.53125 -48.859375 C 16.101562 -49.628906 18.789062 -50.015625 21.59375 -50.015625 Z M 21.59375 -50.015625 "/></g></g></g><g fill="#ffc901" fill-opacity="1"><g transform="translate(285.687068, 182.764991)"><g><path d="M 24.15625 -35.796875 C 29.34375 -35.796875 33.492188 -34.835938 36.609375 -32.921875 C 39.722656 -31.003906 41.28125 -28.082031 41.28125 -24.15625 C 41.28125 -22.664062 41.007812 -20.972656 40.46875 -19.078125 L 37.6875 -9.75 C 37.644531 -9.5625 37.625 -9.332031 37.625 -9.0625 C 37.625 -8.34375 37.914062 -7.984375 38.5 -7.984375 C 39.039062 -7.984375 39.503906 -8.21875 39.890625 -8.6875 C 40.273438 -9.164062 40.535156 -9.40625 40.671875 -9.40625 C 40.898438 -9.40625 41.09375 -9.242188 41.25 -8.921875 C 41.40625 -8.609375 41.484375 -8.25 41.484375 -7.84375 C 41.523438 -6.625 41.0625 -5.382812 40.09375 -4.125 C 39.125 -2.863281 37.828125 -1.828125 36.203125 -1.015625 C 34.578125 -0.203125 32.796875 0.203125 30.859375 0.203125 C 28.515625 0.203125 26.503906 -0.222656 24.828125 -1.078125 C 23.160156 -1.941406 22.015625 -3.207031 21.390625 -4.875 C 20.035156 -3.25 18.429688 -1.992188 16.578125 -1.109375 C 14.734375 -0.234375 12.75 0.203125 10.625 0.203125 C 8.226562 0.203125 6.21875 -0.257812 4.59375 -1.1875 C 2.976562 -2.113281 1.773438 -3.304688 0.984375 -4.765625 C 0.191406 -6.234375 -0.203125 -7.78125 -0.203125 -9.40625 C -0.203125 -10.125 -0.132812 -10.820312 0 -11.5 C 0.71875 -14.613281 2.285156 -16.957031 4.703125 -18.53125 C 7.117188 -20.113281 9.992188 -20.90625 13.328125 -20.90625 C 17.078125 -20.90625 20.753906 -20.320312 24.359375 -19.15625 L 26.046875 -23.625 C 26.640625 -25.507812 26.9375 -26.972656 26.9375 -28.015625 C 26.882812 -29.097656 26.519531 -29.910156 25.84375 -30.453125 C 25.164062 -30.992188 24.128906 -31.265625 22.734375 -31.265625 C 23.003906 -30.546875 23.140625 -29.800781 23.140625 -29.03125 C 23.140625 -27.363281 22.507812 -25.921875 21.25 -24.703125 C 19.988281 -23.484375 18.179688 -22.875 15.828125 -22.875 C 13.617188 -22.875 11.894531 -23.359375 10.65625 -24.328125 C 9.414062 -25.296875 8.796875 -26.503906 8.796875 -27.953125 C 8.796875 -30.203125 10.054688 -32.070312 12.578125 -33.5625 C 15.109375 -35.050781 18.96875 -35.796875 24.15625 -35.796875 Z M 20.375 -15.296875 C 19.101562 -15.296875 18.070312 -14.8125 17.28125 -13.84375 C 16.5 -12.875 16.109375 -11.820312 16.109375 -10.6875 C 16.109375 -9.96875 16.273438 -9.378906 16.609375 -8.921875 C 16.953125 -8.472656 17.4375 -8.25 18.0625 -8.25 C 18.65625 -8.25 19.300781 -8.484375 20 -8.953125 C 20.695312 -9.429688 21.203125 -10.144531 21.515625 -11.09375 L 22.9375 -15.09375 C 22.175781 -15.226562 21.320312 -15.296875 20.375 -15.296875 Z M 20.375 -15.296875 "/></g></g></g><g fill="#ffc901" fill-opacity="1"><g transform="translate(329.943535, 182.764991)"><g><path d="M 22.265625 -36.40625 C 26.003906 -36.40625 29.238281 -36.066406 31.96875 -35.390625 C 34.695312 -34.710938 36.796875 -33.765625 38.265625 -32.546875 C 39.734375 -31.328125 40.46875 -29.953125 40.46875 -28.421875 C 40.46875 -26.835938 39.847656 -25.550781 38.609375 -24.5625 C 37.367188 -23.570312 35.644531 -23.078125 33.4375 -23.078125 C 31.175781 -23.078125 29.265625 -23.640625 27.703125 -24.765625 C 26.148438 -25.890625 25.375 -27.3125 25.375 -29.03125 C 25.375 -29.613281 25.460938 -30.175781 25.640625 -30.71875 C 24.828125 -30.945312 24.109375 -31.0625 23.484375 -31.0625 C 22.359375 -31.0625 21.421875 -30.789062 20.671875 -30.25 C 19.929688 -29.707031 19.582031 -28.941406 19.625 -27.953125 C 19.625 -26.773438 20.207031 -25.78125 21.375 -24.96875 C 22.550781 -24.15625 24.445312 -23.140625 27.0625 -21.921875 C 29.320312 -20.929688 31.179688 -20.019531 32.640625 -19.1875 C 34.109375 -18.351562 35.347656 -17.300781 36.359375 -16.03125 C 37.378906 -14.769531 37.890625 -13.285156 37.890625 -11.578125 C 37.890625 -11.210938 37.800781 -10.535156 37.625 -9.546875 C 36.90625 -6.515625 34.894531 -4.117188 31.59375 -2.359375 C 28.300781 -0.609375 23.972656 0.265625 18.609375 0.265625 C 12.566406 0.265625 7.773438 -0.546875 4.234375 -2.171875 C 0.691406 -3.796875 -1.078125 -6.023438 -1.078125 -8.859375 C -1.078125 -10.804688 -0.492188 -12.273438 0.671875 -13.265625 C 1.847656 -14.253906 3.40625 -14.75 5.34375 -14.75 C 7.601562 -14.75 9.53125 -14.050781 11.125 -12.65625 C 12.726562 -11.257812 13.53125 -9.476562 13.53125 -7.3125 C 13.53125 -6.71875 13.460938 -6.109375 13.328125 -5.484375 C 14.410156 -5.210938 15.445312 -5.078125 16.4375 -5.078125 C 17.613281 -5.078125 18.582031 -5.390625 19.34375 -6.015625 C 20.113281 -6.648438 20.5 -7.53125 20.5 -8.65625 C 20.457031 -9.695312 19.9375 -10.585938 18.9375 -11.328125 C 17.945312 -12.078125 16.375 -12.972656 14.21875 -14.015625 C 12.1875 -14.953125 10.515625 -15.835938 9.203125 -16.671875 C 7.890625 -17.515625 6.769531 -18.566406 5.84375 -19.828125 C 4.925781 -21.085938 4.46875 -22.578125 4.46875 -24.296875 C 4.46875 -27.992188 6.007812 -30.9375 9.09375 -33.125 C 12.1875 -35.3125 16.578125 -36.40625 22.265625 -36.40625 Z M 22.265625 -36.40625 "/></g></g></g></svg>